<svg width="1189" height="500" viewBox="0 0 1189 500" fill="none" xmlns="http://www.w3.org/2000/svg">
<path d="M493.292 273.574C485.72 258.82 485.72 241.185 493.292 226.431C507.371 198.913 498.447 165.529 472.458 148.748C458.522 139.753 449.74 124.501 448.887 107.934C447.323 77.0739 422.898 52.6136 392.003 51.0493C375.435 50.2316 360.183 41.4145 351.188 27.4778C334.407 1.52433 301.023 -7.43497 273.505 6.64392C258.751 14.2167 241.117 14.2167 226.362 6.64392C198.844 -7.43497 165.46 1.48877 148.679 27.4778C139.685 41.4145 124.433 50.196 107.865 51.0493C77.0051 52.6136 52.5448 77.0384 50.9805 107.934C50.1628 124.501 41.3457 139.753 27.409 148.748C1.49109 165.529 -7.43265 198.949 6.64624 226.431C14.219 241.185 14.219 258.82 6.64624 273.574C-7.43265 301.092 1.49109 334.476 27.4802 351.257C41.4168 360.252 50.1984 375.504 51.0516 392.071C52.6159 422.931 77.0407 447.391 107.936 448.956C124.504 449.773 139.756 458.59 148.751 472.527C160.163 490.197 179.29 500.009 199.022 500.009C208.266 500.009 217.652 497.841 226.433 493.361C241.188 485.788 258.822 485.788 273.576 493.361C301.094 507.44 334.478 498.516 351.259 472.527C360.254 458.59 375.506 449.809 392.074 448.956C422.933 447.391 447.394 422.967 448.958 392.071C449.776 375.504 458.593 360.252 472.53 351.257C498.483 334.476 507.442 301.092 493.363 273.574H493.292ZM467.979 344.324C451.838 354.776 441.599 372.482 440.639 391.68C439.288 418.309 418.24 439.356 391.611 440.707C372.413 441.667 354.708 451.907 344.255 468.048C329.785 490.41 300.987 498.125 277.274 486.002C260.173 477.22 239.73 477.22 222.594 486.002C198.88 498.161 170.082 490.446 155.612 468.048C145.16 451.907 127.49 441.667 108.256 440.707C81.6626 439.356 60.5798 418.309 59.2288 391.68C58.2688 372.482 48.0296 354.776 31.8887 344.324C9.52601 329.854 1.81106 301.056 13.9346 277.343C22.7161 260.242 22.7161 239.799 13.9346 222.662C1.77551 198.949 9.49046 170.151 31.8887 155.681C48.0296 145.229 58.2688 127.523 59.2288 108.325C60.5798 81.6958 81.627 60.6486 108.256 59.2976C127.454 58.3376 145.16 48.0984 155.612 31.9575C165.46 16.7054 181.957 8.27935 198.951 8.27935C206.915 8.27935 215.021 10.1281 222.594 14.0033C239.695 22.7849 260.137 22.7849 277.274 14.0033C300.987 1.8443 329.785 9.55925 344.255 31.9575C354.708 48.0984 372.413 58.3376 391.611 59.2976C418.205 60.6486 439.288 81.6958 440.639 108.325C441.599 127.523 451.838 145.229 467.979 155.681C490.341 170.151 498.056 198.949 485.933 222.662C477.151 239.763 477.151 260.206 485.933 277.343C498.092 301.056 490.377 329.854 467.979 344.324Z" fill="#2E294E"/>
<path d="M314.213 229.524V254.162H338.851V229.524H314.213ZM330.567 245.914H322.497V237.808H330.567V245.914Z" fill="#2E294E"/>
<path d="M255.196 361.958H294.019V337.32H255.196V361.958ZM263.479 345.568H285.735V353.674H263.479V345.568Z" fill="#2E294E"/>
<path d="M226.896 392.32H265.719V367.682H226.896V392.32ZM235.179 375.966H257.435V384.036H235.179V375.966Z" fill="#2E294E"/>
<path d="M160.092 214.628C151.879 214.628 145.195 221.311 145.195 229.524C145.195 237.737 151.879 244.421 160.092 244.421C168.305 244.421 174.989 237.737 174.989 229.524C174.989 221.311 168.305 214.628 160.092 214.628ZM160.092 236.137C156.466 236.137 153.479 233.151 153.479 229.524C153.479 225.898 156.466 222.911 160.092 222.911C163.718 222.911 166.705 225.862 166.705 229.524C166.705 233.186 163.754 236.137 160.092 236.137Z" fill="#2E294E"/>
<path d="M157.745 171.822H149.462V193.865H157.745V171.822Z" fill="#2E294E"/>
<path d="M170.758 171.822H162.474V193.865H170.758V171.822Z" fill="#2E294E"/>
<path d="M164.252 142.029H155.968V152.695H164.252V142.029Z" fill="#2E294E"/>
<path d="M249.969 37.5037C132.787 37.5037 37.4705 132.821 37.4705 250.003C37.4705 312.966 64.9883 369.602 108.612 408.497C111.314 410.95 114.051 413.261 116.895 415.536C123.046 420.514 129.445 425.135 136.129 429.366C138.831 431.108 141.604 432.779 144.413 434.379C151.95 438.717 159.772 442.592 167.842 446.005C168.625 446.325 169.371 446.645 170.153 446.929C171.967 447.676 173.78 448.387 175.593 449.062C175.628 449.098 175.7 449.134 175.771 449.134C176.482 449.418 177.193 449.667 177.904 449.951C179.93 450.662 181.992 451.373 184.054 452.049C190.347 454.111 196.747 455.888 203.289 457.382C206.026 457.986 208.764 458.555 211.572 459.053C213.741 459.479 215.91 459.835 218.078 460.155C228.495 461.755 239.126 462.572 249.969 462.572C260.813 462.572 271.443 461.755 281.86 460.155C292.206 458.591 302.338 456.28 312.151 453.258C315.351 452.298 318.515 451.231 321.644 450.129C349.197 440.21 374.155 424.744 395.131 405.084C396.944 403.413 398.758 401.671 400.464 399.893C401.673 398.72 402.846 397.511 403.984 396.302C405.335 394.88 406.65 393.493 407.93 392.036C441.812 354.385 462.468 304.576 462.468 250.038C462.468 132.856 367.151 37.5393 250.005 37.5393L249.969 37.5037ZM116.931 404.764V330.494H203.289L184.09 393.173V391.467C184.09 378.277 173.353 367.54 160.163 367.54C146.973 367.54 136.236 378.277 136.236 391.467V419.483C129.517 414.967 123.082 410.061 117.002 404.764H116.931ZM160.092 115.08C157.852 115.08 156.039 113.267 156.039 111.027C156.039 108.787 157.852 106.974 160.092 106.974C162.332 106.974 164.145 108.787 164.145 111.027C164.145 113.267 162.332 115.08 160.092 115.08ZM171.291 137.087V159.201H148.893V137.087H171.291ZM145.266 167.485H174.953V198.664H145.266V167.485ZM137.089 206.913H183.166V252.1H137.089V206.913ZM128.912 260.384H191.343V263.797H128.912V260.384ZM128.912 272.081H191.343V322.246H183.699V277.876H175.415V322.246H164.038V277.876H155.754V322.246H144.84V277.876H136.556V322.246H128.912V272.081ZM221.812 298.248H236.21L252.067 265.432H231.873L243.996 225.827L278.731 215.907L187.61 409.777L221.812 298.283V298.248ZM229.313 273.716H238.841L230.984 289.999H224.336L229.313 273.716ZM361.605 205.028H290.571V201.58H361.605V205.028ZM282.322 206.273L257.329 213.419V211.179L282.322 203.108V206.273ZM144.449 424.78V391.467C144.449 382.828 151.488 375.788 160.127 375.788C168.767 375.788 175.806 382.792 175.806 391.467V420.229L170.331 438.041C161.372 434.237 152.733 429.793 144.449 424.78ZM249.969 454.218C236.85 454.218 223.98 452.973 211.572 450.591C208.799 450.058 206.026 449.489 203.289 448.849C196.747 447.32 190.347 445.472 184.054 443.303C183.201 443.018 182.312 442.698 181.459 442.378L184.054 436.832L289.077 213.312H379.31L314.818 443.658C294.446 450.52 272.652 454.218 249.969 454.218ZM324.417 440.174L381.941 234.608L396.944 368.251L362.103 383.076L358.441 418.736L371.951 413.687C357.481 424.495 341.518 433.455 324.417 440.174ZM390.723 397.866L368.004 406.364L369.782 388.836L397.869 376.89L399.22 389.227C396.482 392.214 393.602 395.093 390.687 397.902L390.723 397.866ZM406.65 380.801L386.954 205.028H369.889V193.296H285.806L249.045 205.135V215.765L237.384 219.107L205.777 322.246H199.591V252.136H191.414V198.664H183.237V159.236H179.575V128.839H164.216V122.617C168.98 120.946 172.393 116.395 172.393 111.062C172.393 105.729 168.98 101.143 164.216 99.4722V91.1884H155.932V99.4722C151.168 101.143 147.755 105.694 147.755 111.062C147.755 116.431 151.168 120.946 155.932 122.617V128.839H140.609V159.236H136.947V198.664H128.77V252.136H120.593V322.246H108.612V397.262C69.859 360.109 45.7543 307.811 45.7543 250.003C45.7543 137.407 137.374 45.7875 249.969 45.7875C362.565 45.7875 454.184 137.407 454.184 250.003C454.184 299.705 436.337 345.355 406.65 380.801Z" fill="#2E294E"/>
<path d="M646 121.505C652.167 122.672 658 125.088 663.5 128.755C669 132.422 673.5 137.338 677 143.505C680.667 149.672 682.5 157.088 682.5 165.755C682.5 175.088 680.25 183.338 675.75 190.505C671.25 197.505 664.75 203.005 656.25 207.005C647.917 211.005 638 213.005 626.5 213.005H563.75V38.5049H623.75C640.417 38.5049 653.583 42.3382 663.25 50.0049C673.083 57.5049 678 67.6715 678 80.5049C678 86.6715 676.75 92.6715 674.25 98.5049C671.917 104.338 668.333 109.338 663.5 113.505C658.833 117.505 653 120.172 646 121.505ZM624 49.7549H575.5V116.755H624C636.833 116.755 646.833 113.672 654 107.505C661.333 101.172 665 92.7549 665 82.2549C665 71.7549 661.333 63.7549 654 58.2549C646.667 52.5882 636.667 49.7549 624 49.7549ZM575.5 201.755H626.5C639.833 201.755 650.333 198.422 658 191.755C665.667 185.088 669.5 176.172 669.5 165.005C669.5 153.172 665.25 144.088 656.75 137.755C648.417 131.255 636.833 128.005 622 128.005H575.5V201.755ZM736.348 158.755V147.505H827.348V158.755H736.348ZM774.598 38.5049H789.098L852.848 213.005H840.348L792.348 81.0049L782.098 51.2549L771.598 81.5049L723.598 213.005H710.848L774.598 38.5049ZM897.195 140.255V129.005H948.445C962.779 129.005 974.362 125.338 983.195 118.005C992.029 110.672 996.445 101.005 996.445 89.0049C996.445 77.1715 992.445 67.6715 984.445 60.5049C976.612 53.3382 966.195 49.7549 953.195 49.7549H897.195V38.5049H953.195C964.529 38.5049 974.362 40.5882 982.695 44.7549C991.195 48.9215 997.779 54.7549 1002.45 62.2549C1007.11 69.7549 1009.45 78.6715 1009.45 89.0049C1009.45 99.1715 1006.86 108.172 1001.7 116.005C996.695 123.672 989.612 129.672 980.445 134.005C971.279 138.172 960.612 140.255 948.445 140.255H897.195ZM888.695 213.005V38.5049H900.445V213.005H888.695ZM1111.29 216.005C1096.13 216.005 1082.96 212.005 1071.79 204.005C1060.79 196.005 1052.29 185.172 1046.29 171.505C1040.46 157.838 1037.54 142.505 1037.54 125.505C1037.54 107.172 1040.71 91.2549 1047.04 77.7549C1053.38 64.2549 1062.13 53.8382 1073.29 46.5049C1084.46 39.1715 1097.21 35.5049 1111.54 35.5049C1123.54 35.5049 1134.13 37.9215 1143.29 42.7549C1152.63 47.4215 1160.21 54.0882 1166.04 62.7549C1171.88 71.2549 1175.46 81.2549 1176.79 92.7549H1163.54C1161.88 78.9215 1156.29 67.8382 1146.79 59.5049C1137.29 51.0049 1125.38 46.7549 1111.04 46.7549C1098.88 46.7549 1088.21 50.0882 1079.04 56.7549C1070.04 63.4215 1063.04 72.7549 1058.04 84.7549C1053.04 96.5882 1050.54 110.255 1050.54 125.755C1050.54 141.755 1053.13 155.672 1058.29 167.505C1063.63 179.338 1070.88 188.505 1080.04 195.005C1089.21 201.505 1099.63 204.755 1111.29 204.755C1121.29 204.755 1130.04 202.672 1137.54 198.505C1145.21 194.338 1151.38 188.588 1156.04 181.255C1160.71 173.922 1163.46 165.505 1164.29 156.005H1177.54C1176.54 167.838 1173.13 178.338 1167.29 187.505C1161.63 196.505 1153.96 203.505 1144.29 208.505C1134.79 213.505 1123.79 216.005 1111.29 216.005ZM561 463.005V453.505C585.5 434.172 605.167 417.422 620 403.255C635 388.922 645.833 376.255 652.5 365.255C659.333 354.255 662.75 344.172 662.75 335.005C662.75 323.672 659.25 314.505 652.25 307.505C645.417 300.338 635.333 296.755 622 296.755C608.833 296.755 598 300.505 589.5 308.005C581 315.505 576.083 326.422 574.75 340.755H562.25C563.583 328.755 566.917 318.672 572.25 310.505C577.583 302.172 584.5 295.922 593 291.755C601.667 287.588 611.333 285.505 622 285.505C633.667 285.505 643.417 287.588 651.25 291.755C659.083 295.755 665 301.422 669 308.755C673.167 315.922 675.25 324.255 675.25 333.755C675.25 344.588 672 355.755 665.5 367.255C659 378.755 648.583 391.338 634.25 405.005C619.917 418.672 601 434.255 577.5 451.755H675.75V463.005H561ZM781.848 466.005C768.014 466.005 756.348 462.338 746.848 455.005C737.348 447.505 730.098 437.005 725.098 423.505C720.264 410.005 717.848 394.088 717.848 375.755C717.848 357.255 720.264 341.255 725.098 327.755C730.098 314.255 737.348 303.838 746.848 296.505C756.348 289.172 768.014 285.505 781.848 285.505C795.681 285.505 807.264 289.172 816.598 296.505C826.098 303.838 833.264 314.255 838.098 327.755C843.098 341.088 845.598 357.088 845.598 375.755C845.598 394.255 843.098 410.255 838.098 423.755C833.264 437.255 826.098 447.672 816.598 455.005C807.264 462.338 795.681 466.005 781.848 466.005ZM781.848 454.755C798.681 454.755 811.348 447.672 819.848 433.505C828.514 419.172 832.848 399.922 832.848 375.755C832.848 351.255 828.514 332.005 819.848 318.005C811.348 303.838 798.681 296.755 781.848 296.755C765.014 296.755 752.264 303.838 743.598 318.005C734.931 332.005 730.598 351.255 730.598 375.755C730.598 399.922 734.931 419.172 743.598 433.505C752.264 447.672 765.014 454.755 781.848 454.755ZM886.195 463.005V453.505C910.695 434.172 930.362 417.422 945.195 403.255C960.195 388.922 971.029 376.255 977.695 365.255C984.529 354.255 987.945 344.172 987.945 335.005C987.945 323.672 984.445 314.505 977.445 307.505C970.612 300.338 960.529 296.755 947.195 296.755C934.029 296.755 923.195 300.505 914.695 308.005C906.195 315.505 901.279 326.422 899.945 340.755H887.445C888.779 328.755 892.112 318.672 897.445 310.505C902.779 302.172 909.695 295.922 918.195 291.755C926.862 287.588 936.529 285.505 947.195 285.505C958.862 285.505 968.612 287.588 976.445 291.755C984.279 295.755 990.195 301.422 994.195 308.755C998.362 315.922 1000.45 324.255 1000.45 333.755C1000.45 344.588 997.195 355.755 990.695 367.255C984.195 378.755 973.779 391.338 959.445 405.005C945.112 418.672 926.195 434.255 902.695 451.755H1000.95V463.005H886.195ZM1131.79 463.005V417.755H1039.29V408.255L1127.54 288.505H1143.54V406.505H1175.04V417.755H1143.54V463.005H1131.79ZM1054.04 406.505H1131.79V335.005V300.755L1111.29 328.505L1054.04 406.505Z" fill="#2E294E"/>
</svg>
