<svg xmlns="http://www.w3.org/2000/svg" version="1.1" xmlns:xlink="http://www.w3.org/1999/xlink" xmlns:svgjs="http://svgjs.dev/svgjs" viewBox="0 0 1422 800" style="opacity:75%;"><defs><linearGradient x1="50%" y1="0%" x2="50%" y2="100%" id="ccchaos-grad"><stop stop-color="hsl(230, 55%, 50%)" stop-opacity="1" offset="0%"></stop><stop stop-color="hsl(230, 55%, 70%)" stop-opacity="1" offset="100%"></stop></linearGradient></defs><g stroke-width="2.5" stroke="url(#ccchaos-grad)" fill="none" stroke-linecap="round"><path d="M676.01 -270.39Q681.14 -266.18 688.05 -262.03 696.92 -257.88 707.86 -253.67 720.86 -249.38 735.81 -244.95 752.49 -240.37 770.58 -235.61 789.7 -230.68 809.36 -225.56 829.07 -220.27 848.3 -214.84 866.51 -209.29 883.23 -203.66 898.01 -197.97 910.51 -192.27 926.49 -181.01 934.67 -169.99 926.64 -151.99 917.58 -139.63 915.5 -129.95 920.26 -120.12 927.66 -115.04 938.28 -109.8 952.15 -104.39 969.11 -98.8 988.86 -93.02 1010.94 -87.05 1034.77 -80.92 1059.67 -74.64 1084.89 -68.25 1109.65 -61.79 1133.16 -55.32 1154.68 -48.9 1173.57 -42.57 1189.27 -36.39 1207.8 -24.85 1214.98 -14.17 1205.81 -5.12 1190.13 2.95 1180.45 6.51 1171.11 9.87 1158.84 21.25 1168.09 29.99 1181.49 34.11 1199.21 38.64 1220.93 43.62 1246.09 49.11 1285.66 59.06 1327.19 69.01 1362.79 78.96 1385.67 88.9 1391.49 98.85 1379.14 108.8 1350.96 118.75 1312.33 128.7 1270.58 138.65 1233.67 148.6 1208.63 158.55 1200.2 168.49 1210.01 178.44 1236.18 188.39 1273.73 198.34 1315.52 208.29 1353.59 218.24 1380.71 228.19 1391.7 238.14 1384.48 248.08 1360.42 258.03 1324.1 267.98 1282.43 277.93 1243.35 287.88 1214.28 297.83 1200.76 307.78 1205.37 317.73 1227.22 327.68 1262.16 337.62 1303.54 347.57 1343.48 357.52 1374.39 367.47 1390.38 377.42 1388.4 387.37 1368.84 397.32 1335.42 407.27 1294.49 417.22 1253.85 427.16 1221.23 437.11 1202.84 447.06 1202.17 457.01 1219.36 466.96 1251.14 476.91 1291.44 486.86 1332.62 496.81 1366.82 506.76 1387.55 516.7 1390.85 526.65 1376.1 536.6 1346.11 546.55 1306.58 556.5 1265.03 566.45 1229.38 576.4 1206.4 586.35 1200.48 596.3 1212.73 606.25 1240.83 616.19 1279.42 626.14 1321.17 636.09 1358.13 646.04 1383.27 655.99 1391.79 665.94 1382.09 675.89 1356 685.84 1328.73 688.74 1299.79 693.59 1270.16 700.43 1240.84 709.22 1212.79 719.86 1186.9 732.17 1163.92 745.92 1144.48 760.81 1128.99 776.51 1117.68 792.64 1110.58 808.81 1107.5 824.63 1108.06 839.71 1111.74 853.68 1117.84 866.21 1125.58 877.03 1134.13 885.9 1142.6 892.69 1148.43 890.98 1127.37 878.54 1110.69 871.9 1091.25 865.45 1069.61 859.6 1046.43 854.78 1022.41 851.35 998.31 849.66 974.84 849.98 952.67 852.49 932.41 857.34 914.53 864.54 899.39 874.07 887.22 885.77 878.07 899.45 871.86 914.82 868.37 931.51 867.24 949.14 868.03 967.26 870.19 985.4 873.14 1003.1 876.26 1019.9 878.97 1035.37 880.69 1049.14 878.22 1069.08 869.32 1081.73 860.7 1083.63 849.71 1083.09 836.52 1080.31 821.4 1075.55 804.71 1069.17 786.88 1061.57 768.38 1053.22 749.69 1044.59 731.27 1036.2 713.58 1028.55 697 1022.1 681.84 1017.31 679.72 1004.54 678.35 994.21 664.94 986.82 649.66 998.8 640.25 1006.73 629.42 1014.93 617.33 1022.91 604.19 1030.19 590.27 1036.33 575.87 1040.93 561.27 1043.63 546.77 1044.18 532.64 1042.38 519.12 1038.13 506.37 1031.42 494.55 1022.31 483.71 1010.97 473.87 997.64 464.98 982.62 456.96 966.3 449.65 949.06 442.9 931.36 436.52 913.65 430.3 896.38 424.05 879.97 417.62 864.82 410.84 851.27 403.61 839.61 395.86 830.04 387.55 822.71 378.71 817.65 369.38 814.85 359.66 814.19 349.64 815.48 339.46 818.46 329.25 822.83 319.13 828.21 309.23 834.22 299.62 840.43 290.38 846.44 281.52 851.83 273.04 856.24 257.05 859.85 241.45 858 233.56 853.53 225.39 846.98 216.82 838.4 207.74 827.95 198.06 815.83 187.74 802.3 176.78 787.67 165.22 772.31 153.16 756.57 140.73 740.85 128.1 725.51 115.46 710.92 110.88 700.68 109.18 690.44 110.68 680.2 115.08 669.96 121.57 659.71 128.89 649.47 135.66 639.23 140.59 628.99 142.74 618.75 141.7 608.51 137.67 598.26 131.42 588.02 124.13 577.78 117.19 567.54 111.93 557.3 109.34 547.05 109.92 536.81 113.56 526.57 119.56 516.33 126.78 506.09 133.85 495.85 139.43 485.6 142.44 475.36 142.33 465.12 139.1 454.88 133.38 444.64 126.25 434.4 119.07 424.15 113.21 413.91 109.77 403.67 109.43 393.43 112.23 383.19 117.65 372.95 124.66 362.71 131.92 352.46 138.05 342.22 141.88 331.98 142.69 321.74 140.32 311.5 135.22 301.26 128.36 291.01 121.05 280.77 114.68 270.53 110.46 260.29 109.2 250.05 111.12 239.81 115.88 229.56 122.56 219.32 129.89 209.08 136.48 198.84 141.07 188.6 142.79 178.36 141.31 168.12 136.92 157.87 130.44 147.63 123.12 137.39 116.34 127.15 111.4 116.91 109.23 106.67 110.25 96.42 114.27 86.18 120.51 75.94 127.8 65.7 134.74 55.46 146.19 52.67 156.83 49.92 166.65 47.11 175.7 44.16 191.65 37.34 206.35 29.49 213.38 24.88 220.47 19.86 227.77 14.45 235.39 8.66 243.41 2.55 251.86 -3.84 260.76 -10.44 270.06 -17.2 279.69 -24.04 289.57 -30.9 299.57 -37.7 309.56 -44.4 319.44 -50.93 329.07 -57.27 338.37 -63.38 347.27 -69.25 355.72 -74.87 363.75 -80.24 371.39 -85.4 378.72 -90.35 392.98 -99.77 407.55 -108.95 415.42 -113.51 423.85 -118.12 432.97 -122.8 442.86 -127.59 453.56 -132.51 465.05 -137.56 477.27 -142.74 490.11 -148.05 503.41 -153.47 516.95 -158.98 530.52 -164.55 543.85 -170.14 556.7 -175.72 568.82 -181.26 579.98 -186.73 590.01 -192.1 605.58 -202.39 617.27 -212.27 627.15 -228.34 633.2 -239.69 641.96 -249.22 655 -259.29 670.28 -267.55 676.01 -270.39" stroke-dasharray="10 8" transform="rotate(0, 711, 400)" opacity="1.00"></path><path d="M672.6 -253.88Q683.6 -249.65 696.42 -245.44 710.94 -241.22 726.96 -236.95 744.21 -232.58 762.33 -228.1 780.91 -223.48 799.5 -218.71 817.64 -213.79 834.87 -208.72 850.76 -203.51 864.92 -198.2 877.06 -192.8 886.93 -187.34 900.24 -168.34 899.75 -155.11 889.91 -138.02 887.58 -126.27 890.92 -121.68 896.93 -117.08 905.82 -112.42 917.68 -107.67 932.43 -102.8 949.89 -97.77 969.73 -92.57 991.48 -87.16 1014.6 -81.56 1038.45 -75.75 1062.35 -69.74 1085.6 -63.57 1107.51 -57.26 1127.44 -50.84 1144.83 -44.37 1159.22 -37.9 1176.1 -25.27 1182.6 -13.14 1174.25 -2.32 1160 7.5 1143.2 15.61 1129.67 22.8 1128.8 28.9 1138.77 34.75 1150.75 37.74 1166.76 40.88 1186.56 44.28 1209.69 47.99 1235.57 52.1 1263.45 56.65 1303.56 66.32 1339.59 75.99 1365.03 85.65 1375.27 95.32 1368.46 104.99 1345.84 114.65 1311.5 124.32 1271.64 133.99 1233.47 143.65 1203.89 153.32 1188.26 162.99 1189.39 172.65 1207.09 182.32 1238.15 191.99 1276.95 201.65 1316.49 211.32 1349.61 220.99 1370.32 230.66 1374.88 240.32 1362.47 249.99 1335.32 259.66 1298.35 269.32 1258.24 278.99 1222.25 288.66 1196.88 298.32 1186.71 307.99 1193.6 317.66 1216.29 327.32 1250.68 336.99 1290.55 346.66 1328.69 356.33 1358.21 365.99 1373.77 375.66 1372.55 385.33 1354.78 394.99 1323.66 404.66 1284.84 414.33 1245.31 423.99 1212.24 433.66 1191.6 443.33 1187.13 453 1199.62 462.66 1226.84 472.33 1263.84 482 1303.94 491.66 1339.9 501.33 1365.21 511 1375.28 520.66 1368.31 530.33 1345.55 540 1311.12 549.67 1271.24 559.33 1233.12 569 1203.66 578.67 1188.19 588.33 1189.49 598 1207.34 607.67 1238.51 617.33 1277.36 627 1316.87 636.67 1349.89 646.34 1370.45 656 1374.84 665.67 1362.26 675.34 1340.67 681.26 1316.19 689.02 1289.58 698.55 1261.7 709.73 1233.43 722.35 1205.66 736.18 1179.25 750.92 1154.96 766.26 1133.47 781.85 1115.28 797.33 1100.76 812.34 1090.1 826.54 1083.29 839.6 1080.16 851.23 1084.58 868.33 1095.66 879.57 1122.25 868.98 1120.34 854.89 1111.69 848.77 1099.8 843.2 1084.88 838.55 1067.28 835.18 1047.46 833.38 1025.98 833.43 1003.45 835.5 980.53 839.73 957.87 846.16 936.08 854.78 915.74 865.49 897.34 878.11 881.25 892.4 867.74 908.06 856.95 924.74 848.9 942.06 843.46 959.59 840.4 976.91 839.38 993.59 839.98 1009.24 841.71 1023.48 844.05 1035.98 842.2 1060.42 828.56 1056.47 818.1 1050.16 805.65 1042.78 791.46 1034.76 775.84 1026.55 759.14 1018.61 741.78 1011.38 724.17 1005.31 706.72 1000.8 706.17 988.44 705.07 978.35 690.41 965.5 672.36 968.02 661.63 973.37 649.59 979.95 636.44 987.34 622.45 995.11 607.91 1002.81 593.11 1010.01 578.35 1016.28 563.91 1021.24 550.04 1024.56 536.95 1025.97 524.78 1025.25 513.64 1022.27 503.56 1016.98 494.53 1009.41 486.47 999.66 479.28 987.91 472.79 974.4 466.83 959.43 461.19 943.37 455.68 926.58 450.11 909.48 444.3 892.48 438.09 875.98 431.39 860.37 424.12 846 416.24 833.17 407.76 822.14 398.73 813.08 389.23 806.11 379.36 801.27 369.24 798.53 359.01 797.79 348.79 798.88 338.7 801.56 328.85 805.55 319.3 810.53 310.1 816.13 301.28 821.99 292.8 827.72 284.61 832.96 268.78 839.85 252.93 842.47 244.7 840.77 236.12 837.14 227.09 831.56 217.56 824.07 207.5 814.75 196.93 803.79 185.89 791.38 174.47 777.81 162.78 763.37 150.99 748.38 139.25 733.2 127.75 718.17 125.71 708.01 126.42 697.85 129.77 687.69 135.14 677.54 141.58 667.38 147.9 657.22 152.98 647.06 155.88 636.9 156.1 626.74 153.58 616.58 148.78 606.42 142.57 596.26 136.08 586.11 130.47 575.95 126.77 565.79 125.63 555.63 127.27 545.47 131.39 535.31 137.25 525.15 143.78 514.99 149.8 504.84 154.23 494.68 156.27 484.52 155.54 474.36 152.18 464.2 146.79 454.04 140.36 443.88 134.04 433.72 128.97 423.57 126.08 413.41 125.88 403.25 128.41 393.09 133.22 382.93 139.43 372.77 145.92 362.61 151.52 352.45 155.21 342.3 156.34 332.14 154.68 321.98 150.55 311.82 144.69 301.66 138.16 291.5 132.14 281.34 127.72 271.19 125.7 261.03 126.44 250.87 129.81 240.71 135.21 230.55 141.64 220.39 147.96 210.23 153.02 200.07 155.9 189.92 156.08 179.76 153.54 169.6 148.72 159.44 142.51 149.28 136.02 139.12 130.43 128.96 126.74 118.81 125.64 108.65 127.3 98.49 131.44 88.33 137.31 78.17 143.84 68.01 155.56 65.5 166.68 62.89 177.14 60.08 186.93 57.01 196.06 53.61 204.59 49.84 212.63 45.66 220.28 41.06 227.68 36.04 234.98 30.62 242.29 24.82 249.76 18.7 257.48 12.3 265.52 5.68 273.94 -1.08 282.73 -7.92 291.89 -14.78 301.35 -21.59 311.03 -28.28 320.84 -34.81 330.65 -41.13 340.36 -47.22 349.83 -53.05 358.99 -58.62 367.73 -63.92 376.02 -68.98 391 -78.38 404.81 -87.32 417.73 -95.92 431.01 -104.58 438.27 -109.03 446.13 -113.59 454.71 -118.29 464.11 -123.12 474.38 -128.1 485.51 -133.22 497.47 -138.46 510.15 -143.79 523.41 -149.2 537.06 -154.65 550.87 -160.11 564.61 -165.56 578 -170.95 590.8 -176.26 602.76 -181.48 613.67 -186.58 623.36 -191.57 631.73 -196.43 643.69 -205.79 651.89 -214.94 658.28 -231.13 663.49 -243.23 669.97 -251.16 672.6 -253.88" stroke-dasharray="9 0" transform="rotate(4.5, 711, 400)" opacity="0.97"></path><path d="M688.34 -237.37Q703.87 -233.12 720.42 -228.87 737.64 -224.6 755.18 -220.26 772.65 -215.83 789.63 -211.3 805.74 -206.65 820.6 -201.86 833.89 -196.95 845.33 -191.92 860.95 -181.55 870.22 -171 867.27 -152.72 861.52 -140.07 863.69 -123.86 875.57 -112.73 886.04 -108.39 899.18 -104.04 914.85 -99.63 932.83 -95.13 952.74 -90.5 974.14 -85.72 996.5 -80.75 1019.24 -75.58 1041.73 -70.19 1063.36 -64.58 1083.53 -58.76 1101.69 -52.74 1117.38 -46.55 1130.22 -40.22 1144.91 -27.32 1150.16 -14.45 1142.16 -2.18 1129.01 9.4 1113.85 19.44 1101.76 28.41 1101.25 35.65 1110.62 42.01 1121.71 44.8 1136.52 47.48 1154.85 50.12 1176.34 52.8 1200.49 55.61 1226.66 58.62 1254.12 61.92 1282.07 65.58 1317.77 75.03 1344.6 84.47 1357.93 93.91 1355.5 103.36 1337.71 112.8 1307.62 122.25 1270.39 131.69 1232.4 141.14 1200.18 150.58 1179.24 160.03 1173.2 169.47 1183.07 178.91 1207.17 188.36 1241.36 197.8 1279.78 207.25 1315.83 216.69 1343.33 226.14 1357.57 235.58 1356.1 245.03 1339.16 254.47 1309.68 263.92 1272.7 273.36 1234.57 282.81 1201.83 292.25 1180.1 301.69 1173.11 311.14 1182.05 320.58 1205.39 330.03 1239.13 339.47 1277.48 348.92 1313.86 358.36 1342.03 367.81 1357.15 377.25 1356.63 386.7 1340.57 396.14 1311.71 405.58 1275 415.03 1236.76 424.47 1203.52 433.92 1181.01 443.36 1173.08 452.81 1181.08 462.25 1203.66 471.7 1236.93 481.14 1275.19 490.59 1311.87 500.03 1340.68 509.48 1356.67 518.92 1357.11 528.37 1341.92 537.81 1313.7 547.25 1277.3 556.7 1238.96 566.14 1205.25 575.59 1181.97 585.03 1173.1 594.48 1180.17 603.92 1201.97 613.37 1234.75 622.81 1272.89 632.26 1309.85 641.7 1339.28 651.15 1356.14 660.59 1357.54 670.04 1342.8 678.69 1324.49 688.91 1303.09 700.56 1279.19 713.42 1253.51 727.25 1226.81 741.79 1199.9 756.7 1173.57 771.69 1148.57 786.42 1125.59 800.56 1105.2 813.82 1087.86 825.91 1073.89 836.59 1063.45 845.65 1074.89 854.38 1090.66 843.47 1088.69 825.44 1072.97 817.06 1059.99 816.96 1044.41 818.73 1026.59 822.5 1006.98 828.33 986.1 836.2 964.52 846.04 942.82 857.73 921.56 871.04 901.29 885.73 882.47 901.49 865.51 917.97 850.73 934.82 838.32 951.64 828.38 968.05 820.9 983.66 815.75 998.13 812.71 1011.13 811.47 1022.39 805.89 1026.57 788.19 1008.55 776.72 1001.04 763.64 994.24 749.21 988.53 733.73 984.29 730.64 972.33 726.09 962.49 719.95 954.91 712.19 949.65 702.82 946.7 691.96 945.98 679.77 947.33 666.47 950.51 652.31 955.26 637.59 961.24 622.61 968.09 607.65 975.4 593.01 982.79 578.94 989.83 565.65 996.16 553.3 1001.39 542.02 1005.22 531.85 1007.36 515.28 1004.72 501.56 995.72 495.99 987.51 490.88 977.33 486.01 965.35 481.19 951.83 476.21 937.05 470.92 921.35 465.17 905.07 458.86 888.59 451.9 872.29 444.29 856.53 436.02 841.65 427.14 827.97 417.74 815.75 407.91 805.22 397.78 796.55 387.47 789.82 377.13 785.08 366.86 782.31 356.79 781.4 346.99 782.2 337.52 784.52 328.43 788.1 319.69 792.64 311.3 797.83 303.18 803.32 295.26 808.78 287.44 813.87 279.62 818.25 263.38 823.03 246.24 823.42 236.99 820.66 227.3 816.09 217.19 809.71 206.71 801.59 195.95 791.84 185.02 780.64 174.03 768.2 163.15 754.78 152.51 740.67 142.27 726.16 142.48 716.08 145.01 706.01 149.42 695.93 154.95 685.85 160.67 675.77 165.58 665.69 168.84 655.61 169.9 645.54 168.57 635.46 165.08 625.38 160.04 615.3 154.29 605.22 148.84 595.14 144.61 585.07 142.34 574.99 142.4 564.91 144.8 554.83 149.11 544.75 154.61 534.68 160.34 524.6 165.32 514.52 168.71 504.44 169.9 494.36 168.72 484.28 165.34 474.21 160.37 464.13 154.64 454.05 149.14 443.97 144.81 433.89 142.41 423.82 142.33 413.74 144.59 403.66 148.81 393.58 154.26 383.5 160.01 373.42 165.06 363.35 168.56 353.27 169.9 343.19 168.85 333.11 165.6 323.03 160.69 312.96 154.98 302.88 149.44 292.8 145.02 282.72 142.49 272.64 142.27 262.57 144.4 252.49 148.52 242.41 153.92 232.33 159.68 222.25 164.8 212.17 168.41 202.1 169.89 192.02 168.98 181.94 165.85 171.86 161.02 161.78 155.33 151.71 149.75 141.63 145.24 131.55 142.58 121.47 142.21 111.39 144.21 101.32 148.23 91.24 153.58 81.16 165.11 78.68 176.28 75.96 186.99 72.94 197.16 69.56 206.79 65.78 215.87 61.58 224.44 56.94 232.58 51.88 240.38 46.42 247.96 40.58 255.42 34.42 262.88 27.99 270.46 21.35 278.25 14.58 286.32 7.73 294.72 0.88 303.47 -5.9 312.55 -12.57 321.92 -19.07 331.52 -25.36 341.25 -31.4 351.01 -37.17 360.7 -42.66 370.18 -47.88 379.36 -52.83 388.14 -57.53 404 -66.26 418.34 -74.57 430.61 -82.63 442.24 -90.8 454.38 -99.45 467.81 -108.54 475.66 -113.34 484.36 -118.29 493.97 -123.38 504.51 -128.57 515.96 -133.85 528.25 -139.19 541.26 -144.56 554.83 -149.92 568.74 -155.25 582.76 -160.53 596.65 -165.72 610.14 -170.82 622.96 -175.82 634.89 -180.7 645.72 -185.48 655.28 -190.16 669.51 -199.31 679.58 -208.38 686.96 -231.14 688.34 -237.37" stroke-dasharray="1 10" transform="rotate(9, 711, 400)" opacity="0.95"></path><path d="M715.36 -220.86Q731.87 -216.6 748.18 -212.32 763.95 -208 778.82 -203.61 792.49 -199.14 804.69 -194.56 815.2 -189.88 823.86 -185.08 837.17 -167.48 838.67 -154.65 832.84 -137.01 831.98 -124.89 840.92 -115.9 856.63 -107.27 868.68 -103.11 883.07 -99 899.6 -94.92 918 -90.82 937.88 -86.68 958.81 -82.45 980.28 -78.09 1001.76 -73.59 1022.7 -68.89 1042.56 -63.99 1060.82 -58.86 1077.04 -53.5 1090.84 -47.91 1101.94 -42.1 1114.01 -29.82 1117.6 -17.14 1109.63 -4.24 1097.36 8.45 1083.88 20.25 1073.5 31.22 1073.96 40.48 1083.5 48.63 1094.14 52.07 1108.18 55.2 1125.48 58.05 1145.7 60.69 1168.43 63.17 1193.1 65.57 1219.08 67.97 1245.65 70.44 1272.08 73.08 1297.61 75.97 1324.9 85.24 1340.18 94.52 1340.96 103.79 1327.12 113.06 1300.91 122.34 1266.58 131.61 1229.72 140.89 1196.32 150.16 1171.8 159.44 1160.16 168.71 1163.28 177.98 1180.66 187.26 1209.47 196.53 1245.03 205.81 1281.56 215.08 1313.12 224.36 1334.59 233.63 1342.46 242.9 1335.47 252.18 1314.75 261.45 1283.66 270.73 1247.27 280 1211.48 289.27 1182.11 298.55 1163.94 307.82 1159.92 317.1 1170.7 326.37 1194.54 335.65 1227.55 344.92 1264.37 354.19 1299.01 363.47 1325.86 372.74 1340.53 382.02 1340.65 391.29 1326.2 400.56 1299.52 409.84 1264.96 419.11 1228.13 428.39 1195.01 437.66 1170.99 446.94 1159.98 456.21 1163.76 465.48 1181.72 474.76 1210.94 484.03 1246.67 493.31 1283.1 502.58 1314.32 511.85 1335.24 521.13 1342.47 530.4 1334.83 539.68 1313.57 548.95 1282.13 558.22 1245.64 567.5 1210.01 576.77 1181.05 586.05 1163.45 595.32 1160.09 604.59 1171.5 613.87 1195.83 623.14 1229.13 632.42 1265.98 641.69 1300.39 650.96 1326.78 660.24 1340.85 669.51 1333.21 680.35 1321.85 692.37 1306.96 705.39 1288.87 719.14 1268.03 733.36 1245 747.77 1220.41 762.08 1194.96 775.98 1169.37 789.19 1144.34 801.45 1120.54 812.52 1098.57 822.18 1078.96 830.29 1062.12 836.71 1048.34 841.39 1037.78 844.31 1034.37 832.8 1046.38 819.89 1046.42 807.34 1022.17 818.22 1006.52 827.34 988.98 838.21 969.97 850.65 949.96 864.44 929.46 879.32 908.97 894.99 888.99 911.11 869.99 927.35 852.37 943.35 836.47 958.77 822.56 973.27 810.8 986.54 801.26 998.31 793.93 1008.36 785.21 1008.1 780.58 990.6 775.34 983.51 768.39 977.12 759.71 971.76 749.39 967.78 741.21 956.22 731.44 946.63 720.18 939.15 707.63 933.82 694.01 930.67 679.58 929.6 664.64 930.48 649.48 933.13 634.39 937.3 619.66 942.69 605.53 948.99 592.22 955.83 579.9 962.85 568.67 969.69 558.6 975.99 549.7 981.4 527.6 986.77 515.32 981.26 511.18 974.53 506.95 965.88 502.47 955.44 497.55 943.41 492.09 930.01 485.98 915.52 479.16 900.24 471.62 884.52 463.38 868.67 454.49 853.04 445.04 837.97 435.14 823.75 424.9 810.66 414.47 798.96 403.97 788.84 393.54 780.43 383.27 773.85 373.28 769.11 363.62 766.2 354.34 765.04 337.09 768.01 320.83 774.59 313.1 779.33 305.47 784.45 297.83 789.63 290.09 794.56 282.15 798.93 273.94 802.49 265.41 804.96 256.52 806.14 247.27 805.85 237.68 803.98 227.79 800.43 217.69 795.2 207.47 788.3 197.24 779.82 187.13 769.89 177.26 758.68 167.76 746.4 158.73 733.28 160.65 723.3 164.25 713.32 168.94 703.34 173.97 693.35 178.51 683.37 181.83 673.39 183.38 663.41 182.92 653.43 180.52 643.45 176.57 633.47 171.72 623.49 166.74 613.5 162.45 603.52 159.55 593.54 158.51 583.56 159.5 573.58 162.35 563.6 166.61 553.62 171.58 543.64 176.45 533.65 180.43 523.67 182.88 513.69 183.4 503.71 181.9 493.73 178.62 483.75 174.1 473.77 169.08 463.78 164.37 453.8 160.73 443.82 158.76 433.84 158.77 423.86 160.77 413.88 164.44 403.9 169.16 393.92 174.18 383.93 178.69 373.95 181.94 363.97 183.41 353.99 182.86 344.01 180.38 334.03 176.37 324.05 171.49 314.06 166.53 304.08 162.29 294.1 159.46 284.12 158.51 274.14 159.58 264.16 162.51 254.18 166.82 244.19 171.8 234.21 176.65 224.23 180.58 214.25 182.95 204.27 183.37 194.29 181.79 184.3 178.44 174.32 173.89 164.34 168.86 154.36 164.18 144.38 160.6 134.4 158.71 124.42 158.82 114.43 160.91 104.45 164.63 94.47 175.62 91.78 186.47 88.75 197.04 85.32 207.26 81.48 217.06 77.2 226.41 72.48 235.31 67.33 243.78 61.79 251.89 55.88 259.7 49.67 267.31 43.2 274.82 36.54 282.32 29.75 289.93 22.91 297.72 16.07 305.77 9.31 314.12 2.69 322.81 -3.75 331.83 -9.97 341.14 -15.93 350.7 -21.62 360.44 -27.01 370.24 -32.11 380.01 -36.93 389.63 -41.49 398.99 -45.82 407.99 -49.94 416.54 -53.9 431.74 -61.51 445.27 -69.04 456.47 -76.84 466.86 -84.99 477.46 -93.9 489.2 -103.3 496.15 -108.26 503.93 -113.34 512.63 -118.52 522.31 -123.78 532.98 -129.07 544.6 -134.37 557.07 -139.66 570.28 -144.91 584.04 -150.09 598.14 -155.18 612.35 -160.18 626.41 -165.08 640.05 -169.88 653.03 -174.58 665.09 -179.2 676.04 -183.76 685.71 -188.27 693.98 -192.76 705.45 -201.83 712.83 -211.1 714.93 -218.39 715.36 -220.86" stroke-dasharray="3 8" transform="rotate(13.5, 711, 400)" opacity="0.93"></path><path d="M740.2 -204.35Q753.73 -200.08 766.07 -195.78 777.02 -191.43 786.4 -187 799.27 -177.83 807.17 -168.36 806.59 -150.92 803.67 -138.3 808.29 -121.22 819.88 -109.56 829.12 -105.19 840.54 -100.95 854.07 -96.84 869.56 -92.83 886.77 -88.91 905.39 -85.05 925.04 -81.23 945.28 -77.4 965.65 -73.53 985.66 -69.58 1004.85 -65.52 1022.74 -61.31 1038.92 -56.92 1053.03 -52.32 1064.79 -47.5 1073.99 -42.43 1083.17 -31.45 1084.84 -19.79 1076.71 -7.26 1065.22 5.55 1053.53 18.33 1045.1 30.74 1047.03 42.01 1057.39 52.34 1067.94 56.88 1081.61 61.04 1098.23 64.82 1117.52 68.23 1139.11 71.3 1162.51 74.07 1187.14 76.59 1212.39 78.91 1237.58 81.12 1262.06 83.27 1285.16 85.45 1306.27 87.73 1322.5 96.88 1325.44 106.02 1314.63 115.16 1291.72 124.31 1260.25 133.45 1225.04 142.59 1191.53 151.73 1164.84 160.88 1149.1 170.02 1146.72 179.16 1158.07 188.31 1181.39 197.45 1213.12 206.59 1248.36 215.74 1281.7 224.88 1308.01 234.02 1323.25 243.17 1325.07 252.31 1313.2 261.45 1289.46 270.6 1257.5 279.74 1222.23 288.88 1189.08 298.03 1163.14 307.17 1148.4 316.31 1147.13 325.45 1159.53 334.6 1183.68 343.74 1215.87 352.88 1251.16 362.03 1284.12 371.17 1309.68 380.31 1323.9 389.46 1324.62 398.6 1311.7 407.74 1287.15 416.89 1254.73 426.03 1219.43 435.17 1186.68 444.31 1161.51 453.46 1147.79 462.6 1147.63 471.74 1161.06 480.89 1186.01 490.03 1218.65 499.17 1253.95 508.32 1286.49 517.46 1311.27 526.6 1324.47 535.75 1324.07 544.89 1310.13 554.03 1284.8 563.17 1251.95 572.32 1216.66 581.46 1184.34 590.6 1159.96 599.75 1147.27 608.89 1148.22 618.03 1162.67 627.17 1188.39 636.32 1221.43 645.46 1256.71 654.6 1288.81 663.75 1312.78 672.89 1311.56 685.18 1306.99 698.22 1298.97 711.77 1287.56 725.58 1272.96 739.38 1255.45 752.9 1235.47 765.9 1213.51 778.11 1190.13 789.3 1165.96 799.29 1141.64 807.9 1117.78 815 1094.99 820.51 1073.81 824.39 1054.72 826.65 1038.1 827.35 1024.21 826.58 1013.24 824.49 1000.62 809.41 1003.46 796.93 1018.55 806.87 1000.02 831.15 986.72 844.13 971.45 858.19 954.54 873.06 936.38 888.46 917.38 904.07 897.98 919.58 878.64 934.67 859.79 949.03 841.82 962.38 825.11 974.46 809.93 985.03 796.53 993.91 785.05 1000.96 775.57 1006.11 757.23 1000.13 755.82 986.67 755.83 972.85 753.54 960.02 750.43 955 745.91 951.27 732.8 940.1 718.72 930.77 703.94 923.39 688.75 918.03 673.45 914.68 658.32 913.29 643.63 913.75 629.63 915.89 616.51 919.49 604.42 924.3 593.49 930.04 583.76 936.39 575.23 943.02 567.86 949.6 550.22 965.88 540.38 971.1 532.85 965.09 524.14 953.53 518.74 944.62 512.62 934.09 505.72 922.13 498.05 908.96 489.65 894.84 480.58 880.06 470.95 864.9 460.85 849.68 450.43 834.7 439.82 820.26 429.16 806.63 418.56 794.06 408.15 782.78 398.03 772.96 388.26 764.74 378.89 758.2 361.6 751.08 345.44 748.83 330.53 753.34 315.86 760.71 308.43 765.42 300.82 770.29 292.96 775.04 284.8 779.39 276.34 783.08 267.56 785.88 258.49 787.57 249.18 787.98 239.7 786.98 230.14 784.46 220.58 780.38 211.15 774.73 201.94 767.57 193.05 758.97 184.57 749.07 176.58 738.02 179.51 728.17 183.45 718.32 187.77 708.46 191.82 698.61 194.97 688.76 196.74 678.91 196.86 669.05 195.3 659.2 192.32 649.35 188.35 639.5 184.03 629.65 180.01 619.79 176.9 609.94 175.19 600.09 175.14 590.24 176.76 580.38 179.8 570.53 183.79 560.68 188.11 550.83 192.11 540.98 195.17 531.12 196.81 521.27 196.79 511.42 195.11 501.57 192.03 491.71 188.01 481.86 183.69 472.01 179.72 462.16 176.71 452.3 175.13 442.45 175.21 432.6 176.96 422.75 180.09 412.89 184.13 403.04 188.45 393.19 192.4 383.34 195.36 373.48 196.87 363.63 196.72 353.78 194.91 343.93 191.73 334.08 187.67 324.22 183.35 314.37 179.43 304.52 176.52 294.67 175.07 284.81 175.29 274.96 177.16 265.11 180.39 255.26 184.47 245.4 188.79 235.55 192.68 225.7 195.53 215.85 196.92 205.99 196.63 196.14 194.7 186.29 191.43 176.44 187.33 166.58 183.01 156.73 179.16 146.88 176.35 137.03 175.02 127.17 181.49 110.84 197.85 100.82 208.01 96.86 217.96 92.44 227.65 87.6 236.99 82.33 245.98 76.68 254.59 70.68 262.84 64.4 270.78 57.88 278.46 51.19 285.97 44.4 293.39 37.57 300.81 30.77 308.32 24.06 316 17.5 323.93 11.14 332.16 5.01 340.72 -0.83 349.62 -6.4 358.84 -11.67 368.35 -16.63 378.08 -21.3 387.95 -25.69 397.86 -29.84 407.7 -33.77 417.35 -37.53 426.71 -41.15 435.66 -44.69 444.12 -48.18 459 -55.24 472.04 -62.54 482.42 -70.52 491.74 -79.01 500.79 -88.35 510.7 -98.14 516.6 -103.25 523.27 -108.44 530.84 -113.67 539.39 -118.93 548.97 -124.19 559.58 -129.41 571.18 -134.58 583.67 -139.67 596.93 -144.67 610.77 -149.57 625 -154.38 639.36 -159.09 653.61 -163.7 667.49 -168.24 680.75 -172.72 693.13 -177.16 704.43 -181.59 714.47 -186.03 734.87 -199.71 740.2 -204.35" stroke-dasharray="10 2" transform="rotate(18, 711, 400)" opacity="0.90"></path><path d="M750.48 -187.84Q764.47 -179.23 774 -170.43 776.66 -154.02 775.4 -141.89 778.38 -124.49 786.93 -112.25 794.18 -107.53 803.38 -102.92 814.53 -98.45 827.58 -94.12 842.37 -89.94 858.7 -85.89 876.3 -81.98 894.83 -78.19 913.93 -74.5 933.18 -70.88 952.16 -67.3 970.46 -63.74 987.65 -60.15 1003.38 -56.49 1017.3 -52.73 1029.16 -48.84 1044.75 -40.4 1053.2 -31.29 1050.95 -20.93 1043.87 -9.84 1032.88 2.3 1022.46 14.89 1017.86 27.73 1019.36 40.4 1024.47 46.5 1032.38 52.37 1043.15 57.98 1056.75 63.27 1073 68.22 1091.65 72.8 1112.36 76.99 1134.68 80.8 1158.1 84.23 1182.08 87.3 1206.02 90.04 1229.33 92.5 1251.43 94.72 1271.76 96.77 1289.83 98.72 1305.24 100.64 1309.37 109.68 1300.67 118.72 1280.41 127.75 1251.51 136.79 1218.19 145.82 1185.27 154.86 1157.54 163.9 1139.02 172.93 1132.41 181.97 1138.66 191 1156.86 200.04 1184.38 209.07 1217.21 218.11 1250.6 227.15 1279.68 236.18 1300.24 245.22 1309.3 254.25 1305.53 263.29 1289.49 272.33 1263.51 281.36 1231.35 290.4 1197.69 299.43 1167.41 308.47 1144.91 317.5 1133.46 326.54 1134.72 335.58 1148.51 344.61 1172.82 353.65 1204.13 362.68 1237.88 371.72 1269.19 380.75 1293.49 389.79 1307.27 398.83 1308.53 407.86 1297.07 416.9 1274.57 425.93 1244.29 434.97 1210.62 444 1178.47 453.04 1152.48 462.08 1136.45 471.11 1132.69 480.15 1141.75 489.18 1162.32 498.22 1191.41 507.25 1224.79 516.29 1257.62 525.33 1285.14 534.36 1303.34 543.4 1309.58 552.43 1302.96 561.47 1284.44 570.5 1256.71 579.54 1223.79 588.58 1190.47 597.61 1161.58 606.65 1141.31 615.68 1132.62 624.72 1136.75 633.75 1153.12 642.79 1179.34 651.83 1211.61 660.86 1245.25 669.9 1275.36 678.93 1279.14 691.85 1280.31 705.06 1278.58 718.32 1273.76 731.4 1265.8 744.04 1254.76 756.04 1240.79 767.17 1224.18 777.25 1205.29 786.1 1184.55 793.61 1162.48 799.68 1139.62 804.25 1116.51 807.31 1093.74 808.88 1071.82 809.04 1051.26 807.89 1032.5 805.58 1015.88 802.29 1001.68 798.23 990.1 793.64 994.95 797.74 992.51 824.71 986.05 838.02 977.37 852.14 966.54 866.82 953.74 881.78 939.18 896.75 923.16 911.42 906.01 925.53 888.09 938.8 869.81 950.99 851.54 961.87 833.67 971.27 816.55 979.03 800.5 985.05 785.79 989.28 772.62 991.72 761.14 992.41 744.37 988.29 732.71 980.21 728.03 967.93 726.14 954.82 725.96 943.4 725.01 934.76 709.62 923.98 694.28 914.91 679.25 907.65 664.8 902.26 651.14 898.74 638.45 897.06 626.88 897.11 616.51 898.76 600.06 906.54 587.08 917.1 578.66 929.48 571.95 941.17 552.77 948.36 538.49 940.3 531.28 932.86 523.27 923.82 514.52 913.33 505.12 901.56 495.17 888.72 484.79 875.03 474.13 860.77 463.31 846.2 452.48 831.59 441.77 817.22 431.28 803.36 421.11 790.26 411.34 778.14 402 767.2 393.13 757.61 384.71 749.48 369.27 738.71 354.74 732.66 340.93 733.73 327 738.24 312.18 746.41 296.54 755.34 288.22 759.62 279.65 763.42 270.86 766.5 261.93 768.66 252.93 769.73 243.95 769.56 235.08 768.04 226.41 765.1 218.01 760.71 209.96 754.89 202.31 747.67 195.1 739.14 198.36 729.46 202 719.78 205.49 710.1 208.33 700.42 210.1 690.75 210.55 681.07 209.61 671.39 207.42 661.71 204.29 652.03 200.68 642.35 197.12 632.67 194.12 622.99 192.11 613.31 191.4 603.63 192.07 593.96 194.04 584.28 197.02 574.6 200.57 564.92 204.19 555.24 207.34 545.56 209.56 535.88 210.54 526.2 210.14 516.52 208.4 506.84 205.59 497.17 202.11 487.49 198.46 477.81 195.19 468.13 192.75 458.45 191.51 448.77 191.65 439.09 193.14 429.41 195.77 419.73 199.16 410.05 202.81 400.37 206.2 390.7 208.83 381.02 210.32 371.34 210.46 361.66 209.22 351.98 206.79 342.3 203.51 332.62 199.86 322.94 196.38 313.26 193.57 303.58 191.83 293.9 191.43 284.22 192.41 274.55 194.63 264.87 197.78 255.19 201.39 245.51 204.95 235.83 207.93 226.15 209.9 216.47 210.57 206.79 209.86 197.11 207.85 187.43 204.85 177.75 201.29 168.07 197.68 158.39 194.55 148.72 192.36 139.04 196.33 122.67 210.75 111.83 220.3 107.24 229.79 102.22 239.14 96.8 248.27 91.02 257.13 84.92 265.68 78.55 273.92 71.98 281.85 65.27 289.51 58.48 296.94 51.69 304.22 44.94 311.41 38.31 318.6 31.85 325.88 25.6 333.32 19.6 341 13.89 348.97 8.47 357.29 3.36 365.96 -1.42 374.99 -5.92 384.35 -10.13 394.01 -14.08 403.89 -17.81 413.9 -21.35 423.94 -24.75 433.91 -28.04 443.69 -31.28 453.15 -34.51 462.2 -37.77 470.74 -41.1 485.66 -48.2 498.6 -55.76 508.5 -64.23 517.04 -73.25 524.67 -83.05 532.76 -93.19 543.35 -103.62 556.37 -114.05 564.57 -119.2 573.84 -124.28 584.17 -129.27 595.54 -134.17 607.86 -138.97 620.99 -143.67 634.78 -148.27 649.03 -152.77 663.49 -157.21 677.94 -161.59 692.12 -165.93 705.76 -170.25 718.62 -174.59 730.49 -178.95 745.82 -185.6 750.48 -187.84" stroke-dasharray="6 10" transform="rotate(22.5, 711, 400)" opacity="0.88"></path><path d="M741.06 -171.34Q746.14 -156.03 746.48 -144.68 749.32 -127.76 756.37 -115.47 762.36 -110.54 770.05 -105.67 779.49 -100.87 790.65 -96.15 803.49 -91.55 817.85 -87.08 833.54 -82.75 850.33 -78.57 867.9 -74.55 885.94 -70.68 904.09 -66.95 921.98 -63.36 939.24 -59.88 955.52 -56.48 970.48 -53.14 983.84 -49.83 995.36 -46.51 1004.85 -43.14 1016.6 -22.79 1010.22 -10.49 1000.54 0.18 992.14 11.59 990.08 23.93 993.98 36.61 1000.04 43.02 1008.68 49.39 1019.91 55.66 1033.67 61.77 1049.79 67.68 1068.02 73.33 1088.04 78.69 1109.44 83.71 1131.77 88.37 1154.54 92.64 1177.22 96.53 1199.28 100.03 1220.22 103.15 1239.55 105.92 1256.82 108.38 1271.68 110.56 1284.72 117.9 1267.29 132.21 1240.58 141.14 1209.13 150.07 1177.25 159.01 1149.31 167.94 1129.12 176.88 1119.46 185.81 1121.64 194.75 1135.37 203.68 1158.76 212.62 1188.62 221.55 1220.86 230.49 1251.06 239.42 1275.1 248.36 1289.67 257.29 1292.79 266.23 1284.03 275.16 1264.59 284.1 1237.13 293.03 1205.41 301.97 1173.77 310.9 1146.53 319.84 1127.44 328.77 1119.1 337.71 1122.65 346.64 1137.61 355.58 1161.94 364.51 1192.29 373.45 1224.52 382.38 1254.21 391.32 1277.3 400.25 1290.64 409.19 1292.38 418.12 1282.31 427.06 1261.78 435.99 1233.62 444.93 1201.68 453.86 1170.33 462.8 1143.86 471.73 1125.9 480.67 1118.9 489.6 1123.82 498.54 1139.99 507.47 1165.19 516.41 1195.98 525.34 1228.14 534.28 1257.27 543.21 1279.38 552.15 1291.45 561.08 1291.81 570.02 1280.43 578.95 1258.87 587.89 1230.06 596.82 1197.96 605.76 1166.96 614.69 1141.3 623.63 1124.5 632.56 1118.86 641.5 1125.14 650.43 1142.49 659.37 1168.53 668.3 1199.7 677.24 1231.73 686.17 1238.61 698.88 1243.85 711.45 1247.03 723.67 1247.82 735.33 1245.95 746.24 1241.28 756.22 1233.74 765.12 1223.39 772.8 1210.36 779.18 1194.89 784.19 1177.28 787.81 1157.92 790.03 1137.24 790.91 1115.71 790.53 1093.83 789 1072.09 786.46 1050.98 783.1 1030.94 779.1 1012.37 774.68 995.63 770.07 980.99 765.5 968.64 761.22 954.98 772.55 963.8 794.51 966.11 806.14 967.11 818.76 966.54 832.18 964.18 846.17 959.9 860.48 953.62 874.87 945.34 889.06 935.13 902.82 923.13 915.89 909.54 928.04 894.59 939.06 878.57 948.78 861.81 957.04 844.64 963.73 827.4 968.78 810.42 972.17 794.01 973.9 778.47 974.04 764.04 972.68 750.91 969.96 739.25 966.07 729.13 961.2 714.37 949.41 704.01 937 699.47 926.32 697.12 918.25 683.17 907.86 670.15 899.05 658.21 891.92 647.45 886.51 630.32 881.72 616.84 881.77 604.13 896.12 597.55 909.69 586.84 926.71 576.15 934.41 562.75 932.65 546.86 926.18 537.6 920.15 527.72 912.58 517.37 903.56 506.65 893.23 495.73 881.73 484.72 869.28 473.78 856.08 463.03 842.36 452.56 828.37 442.47 814.36 432.83 800.58 423.67 787.26 415.02 774.62 406.87 762.89 399.18 752.22 391.9 742.78 384.98 734.69 378.32 728.01 365.48 719.79 352.65 715.85 339.1 718.15 324.8 723.31 317.16 727.09 309.25 731.23 301.09 735.49 292.75 739.65 284.27 743.48 275.72 746.78 258.84 750.49 242.46 751.06 227.49 745.41 213.58 735.77 216.57 726.32 219.49 716.86 221.92 707.41 223.54 697.95 224.13 688.5 223.6 679.04 222.03 669.59 219.63 660.13 216.74 650.68 213.74 641.22 211.04 631.77 209.03 622.31 207.96 612.86 208 603.4 209.13 593.95 211.19 584.5 213.92 575.04 216.92 565.59 219.8 556.13 222.15 546.68 223.67 537.22 224.13 527.77 223.47 518.31 221.79 508.86 219.32 499.4 216.39 489.95 213.4 480.49 210.77 471.04 208.85 461.59 207.91 452.13 208.07 442.68 209.32 433.22 211.48 423.77 214.25 414.31 217.27 404.86 220.1 395.4 222.38 385.95 223.77 376.49 224.11 367.04 223.33 357.59 221.54 348.13 219 338.68 216.04 329.22 213.07 319.77 210.51 310.31 208.69 300.86 207.87 291.4 208.16 281.95 209.53 272.49 211.77 263.04 214.6 253.59 217.61 244.13 220.4 234.68 222.59 225.22 223.87 215.77 224.07 206.31 223.17 196.86 221.28 187.4 218.67 177.95 215.69 168.5 212.75 159.04 210.26 149.59 212.47 133.22 225.15 121.49 234.03 116.27 242.96 110.68 251.85 104.74 260.63 98.52 269.22 92.08 277.58 85.46 285.68 78.74 293.5 71.98 301.04 65.24 308.34 58.58 315.43 52.06 322.37 45.73 329.21 39.63 336.05 33.79 342.96 28.25 350.02 23.02 357.3 18.1 364.86 13.5 372.77 9.21 381.06 5.21 389.73 1.47 398.8 -2.03 408.22 -5.35 417.96 -8.52 427.94 -11.57 438.08 -14.57 448.28 -17.55 458.42 -20.55 468.39 -23.61 478.07 -26.78 487.35 -30.08 496.12 -33.53 511.48 -41.1 524.76 -49.25 534.64 -58.35 542.82 -67.93 549.34 -78.09 555.8 -88.43 563.92 -98.79 574.04 -109.02 580.62 -114 588.24 -118.88 596.94 -123.66 606.76 -128.33 617.64 -132.89 629.54 -137.35 642.34 -141.73 655.89 -146.03 670 -150.27 684.47 -154.48 699.06 -158.67 713.52 -162.86 734.33 -169.21 741.06 -171.34" stroke-dasharray="3 0" transform="rotate(27, 711, 400)" opacity="0.85"></path><path d="M716.65 -154.83Q717.17 -146.28 717.84 -137.4 720.63 -128.17 727.37 -118.63 739.45 -108.88 757.62 -99.08 781.82 -89.41 811.16 -80.07 843.99 -71.2 878.1 -62.95 910.97 -55.34 940.12 -48.35 963.46 -41.85 979.56 -35.66 986.2 -22.85 976.54 -8.46 968.16 0.24 962.44 10.03 962.25 20.87 969.85 32.62 986.56 45.04 1012.51 57.76 1046.62 70.38 1086.67 82.47 1129.57 93.63 1171.72 103.52 1209.5 111.93 1239.75 118.79 1260.16 124.17 1269.69 128.33 1227.65 145.98 1167.33 163.63 1118.82 181.28 1106.29 198.92 1135.99 216.57 1193.12 234.22 1249.19 251.86 1276.24 269.51 1260.79 287.16 1210.54 304.81 1150.54 322.45 1110.71 340.1 1110.91 357.75 1151.04 375.4 1211.09 393.04 1261.12 410.69 1276.18 428.34 1248.77 445.99 1192.55 463.63 1135.55 481.28 1106.2 498.93 1119.13 516.58 1167.89 534.22 1228.17 551.87 1269.92 569.52 1272.31 587.17 1234.16 604.81 1174.49 622.46 1123.05 640.11 1105.48 657.76 1130.56 675.4 1185.77 693.05 1200.88 716.02 1211.81 736.32 1215.39 752.75 1209.5 764.46 1193.31 771.07 1167.33 772.68 1133.32 769.87 1094.02 763.7 1052.71 755.54 1012.85 747.02 977.55 739.81 949.22 735.5 929.28 735.41 918.03 740.47 914.6 751.13 917.18 767.3 923.26 788.34 929.98 813.13 934.53 840.13 934.52 867.61 928.25 893.72 914.91 916.73 894.64 935.17 868.5 948.03 838.21 954.78 805.97 955.53 774.1 950.94 744.75 942.22 719.61 931.01 699.73 919.22 685.39 908.84 676.14 901.74 658.25 883.19 645.35 870.79 632.29 867.47 624.18 879.04 619.15 889.91 611.52 900.82 600.55 909.89 586.04 915.44 568.27 916.15 547.97 911.21 526.14 900.35 503.89 883.88 482.27 862.65 462.13 837.96 443.98 811.4 427.99 784.74 413.96 759.71 401.39 737.86 389.62 720.39 377.93 708.09 365.7 701.2 352.49 699.46 338.12 702.1 322.67 707.95 306.5 715.55 290.08 723.31 273.96 729.63 258.64 733.11 244.43 732.63 231.39 727.49 235.71 709.14 237.67 690.78 236.3 672.43 232.28 654.07 227.61 635.72 224.63 617.36 224.81 599.01 228.08 580.65 232.79 562.3 236.6 543.94 237.62 525.59 235.32 507.24 230.86 488.88 226.47 470.53 224.32 452.17 225.5 433.82 229.41 415.46 234.11 397.11 237.25 378.75 237.26 360.4 234.15 342.05 229.46 323.69 225.53 305.34 224.32 286.98 226.43 268.63 230.82 250.28 235.29 231.92 237.61 213.57 236.63 195.21 232.84 176.86 228.12 158.5 224.83 140.15 240.73 129.64 257.36 117.77 274.14 104.93 290.51 91.58 306.07 78.21 320.62 65.3 334.21 53.22 347.16 42.26 359.98 32.56 373.26 24.13 387.6 16.85 403.44 10.49 420.97 4.74 440.07 -0.74 460.3 -6.31 480.96 -12.26 501.14 -18.84 519.9 -26.2 536.43 -34.39 550.16 -43.36 560.9 -52.98 568.94 -63.07 574.98 -73.4 580.13 -83.73 585.74 -93.88 593.22 -103.69 603.83 -113.06 618.5 -121.97 637.61 -130.49 660.99 -138.71 687.79 -146.77 716.65 -154.83 716.65 -154.83 716.65 -154.83" stroke-dasharray="10 1" transform="rotate(31.5, 711, 400)" opacity="0.82"></path><path d="M689.41 -138.32Q692.8 -129.81 699.56 -120.94 710.95 -111.72 727.67 -102.19 749.77 -92.49 776.63 -82.76 806.95 -73.21 838.92 -64 870.41 -55.32 899.23 -47.26 923.43 -39.89 941.54 -33.17 954.36 -21.3 950.43 -9.8 938.51 3.83 936.86 20.16 947.41 30.2 966.34 41.26 993.43 53.16 1027.45 65.61 1066.23 78.26 1106.94 90.68 1146.38 102.47 1181.41 113.26 1209.32 122.73 1228.19 130.71 1237.16 137.13 1236.59 142.11 1184.7 159.48 1128.72 176.86 1094.92 194.23 1099.16 211.61 1139.44 228.98 1196.87 246.36 1244.5 263.73 1259.98 281.11 1236.06 298.48 1183.94 315.86 1128.1 333.23 1094.72 350.61 1099.47 367.98 1140.12 385.36 1197.6 402.73 1244.94 420.1 1259.92 437.48 1235.52 454.85 1183.19 472.23 1127.48 489.6 1094.52 506.98 1099.79 524.35 1140.81 541.73 1198.33 559.1 1245.37 576.47 1259.85 593.85 1234.99 611.22 1182.44 628.6 1126.86 645.97 1094.33 663.35 1100.11 680.72 1141.49 698.09 1155.47 717.59 1169.22 733.55 1178.82 749.88 1164.24 752.7 1141.17 747.55 1110.43 740.27 1074.24 732.26 1035.42 725.02 996.98 720 961.78 718.49 932.17 721.46 909.73 729.48 895.12 742.68 888.01 760.71 887.19 782.76 890.73 807.66 896.25 833.92 901.26 859.93 903.43 884.06 900.88 904.84 892.41 921.06 877.59 931.94 856.79 937.15 831.09 936.9 802.09 931.89 771.75 923.27 742.04 912.57 714.77 901.49 691.32 891.82 672.54 885.24 664.6 867.33 659.99 855.1 654.25 850.6 645.18 860.27 635.84 870.27 622.86 880.7 606.37 889.83 586.94 896.12 565.47 898.28 543.03 895.41 520.73 887.11 499.56 873.46 480.23 855.02 463.14 832.78 448.33 808.07 435.51 782.39 424.15 757.33 413.56 734.39 403.01 714.85 391.89 699.65 379.74 689.33 366.35 683.98 351.78 683.23 336.29 686.3 320.33 692.1 304.39 699.28 288.96 706.4 274.37 712.08 260.79 715.06 248.14 714.36 250.72 696.66 251.08 678.96 249.05 661.26 245.58 643.56 242.3 625.86 240.75 608.15 241.66 590.45 244.59 572.75 248.18 555.05 250.74 537.35 251.07 519.65 249.01 501.95 245.54 484.25 242.27 466.54 240.75 448.84 241.68 431.14 244.64 413.44 248.22 395.74 250.76 378.04 251.06 360.34 248.97 342.63 245.49 324.93 242.24 307.23 240.74 289.53 241.71 271.83 244.68 254.13 248.27 236.43 250.78 218.72 251.04 201.02 248.93 183.32 245.44 165.62 242.2 147.92 256.99 136.26 272.59 123.61 288.56 110.41 304.38 97.13 319.61 84.23 333.92 72.09 347.21 61.02 359.61 51.19 371.47 42.66 383.31 35.34 395.72 29.05 409.3 23.52 424.48 18.42 441.49 13.41 460.26 8.15 480.41 2.38 501.27 -4.09 522 -11.42 541.63 -19.59 559.28 -28.56 574.25 -38.17 586.15 -48.23 595 -58.51 601.26 -68.79 605.8 -78.87 609.81 -88.59 614.65 -97.85 621.7 -106.63 632.14 -114.96 646.79 -122.93 665.97 -130.67 689.41 -138.32 689.41 -138.32 689.41 -138.32" stroke-dasharray="3 3" transform="rotate(36, 711, 400)" opacity="0.80"></path><path d="M672.93 -121.81Q684.29 -113.36 700.32 -104.53 721.11 -95.32 746.13 -85.83 774.34 -76.18 804.23 -66.53 834 -57.07 861.75 -47.99 885.76 -39.44 904.62 -31.54 921.44 -18.17 922.21 -6.57 911.6 4.01 907.05 15.57 913.49 22.57 927.14 30.58 948.36 39.71 976.62 49.93 1010.53 61.13 1048 73.1 1086.42 85.52 1122.98 98.04 1154.99 110.26 1180.19 121.77 1197.04 132.23 1204.91 141.37 1204.22 149.01 1196.4 155.11 1141.73 172.14 1095.54 189.17 1078.19 206.2 1097.31 223.22 1144.48 240.25 1198.93 257.28 1236.66 274.31 1241.05 291.34 1210.16 308.36 1157.61 325.39 1106.55 342.42 1079.47 359.45 1088.3 376.48 1129.15 393.5 1184.03 410.53 1228.76 427.56 1243.62 444.59 1222.09 461.61 1173.63 478.64 1119.6 495.67 1083.81 512.7 1082.01 529.72 1115.01 546.75 1168.26 563.78 1218.31 580.81 1243.1 597.83 1231.72 614.86 1189.17 631.89 1134.21 648.92 1091.04 665.94 1078.69 682.97 1102.59 700 1111.91 715.25 1124.38 726.56 1139.83 729.33 1116.03 716.88 1088.84 709.85 1056.05 704.53 1019.99 702.1 983.25 703.53 948.42 709.47 917.77 720.18 892.99 735.53 875.04 754.96 864.07 777.58 859.43 802.19 859.79 827.4 863.27 851.74 867.76 873.81 871.12 892.37 871.43 906.45 867.22 915.47 857.61 919.28 842.38 918.16 821.96 912.82 797.36 904.37 770.01 894.18 741.58 883.8 713.77 874.82 688.1 868.73 686.39 851.46 685.01 839.42 675.97 833.85 657.59 841.7 642.09 850.8 623.4 860.64 602.33 869.69 579.91 876.51 557.24 879.87 535.37 878.84 515.12 872.9 497.08 861.95 481.48 846.3 468.2 826.67 456.87 804.11 446.88 779.89 437.51 755.39 428.06 732.03 417.9 711.06 406.62 693.54 393.99 680.2 380.07 671.41 365.08 667.14 349.44 666.99 333.63 670.21 318.1 675.77 303.23 682.47 289.23 689.03 276.1 694.21 263.67 696.91 264.77 679.95 264.21 662.98 262.22 646.01 259.69 629.05 257.73 612.08 257.2 595.11 258.35 578.15 260.65 561.18 263.1 544.21 264.62 527.25 264.54 510.28 262.89 493.31 260.4 476.34 258.17 459.38 257.18 442.41 257.86 425.44 259.92 408.48 262.45 391.51 264.33 374.54 264.74 357.57 263.49 340.61 261.14 323.64 258.72 306.67 257.3 289.71 257.5 272.74 259.24 255.77 261.74 238.8 263.92 221.84 264.8 204.87 264 187.9 261.87 170.93 259.35 153.97 273.32 141.48 288.11 128.43 303.42 115.27 318.8 102.44 333.8 90.32 348.03 79.22 361.27 69.34 373.44 60.76 384.72 53.42 395.47 47.2 406.23 41.84 417.58 37.04 430.13 32.49 444.34 27.84 460.48 22.79 478.57 17.12 498.32 10.65 519.15 3.3 540.29 -4.91 560.8 -13.91 579.75 -23.52 596.31 -33.56 609.91 -43.79 620.29 -54 627.61 -63.99 632.46 -73.59 635.75 -82.72 638.72 -91.33 642.71 -99.45 649.05 -107.15 665.9 -118.18 672.93 -121.81" stroke-dasharray="2 2" transform="rotate(40.5, 711, 400)" opacity="0.78"></path><path d="M675.42 -105.3Q695.49 -96.93 719.23 -88.14 745.73 -78.99 773.7 -69.54 801.61 -59.96 827.85 -50.39 850.91 -41.02 869.56 -32.03 882.99 -23.58 890.95 -15.8 891.06 -2.77 883.34 8.33 881.05 17.97 892.71 28.2 909.5 34.33 932.93 41.4 962.21 49.54 995.83 58.8 1031.78 69.14 1067.71 80.4 1101.16 92.36 1129.89 104.71 1152.05 117.07 1166.49 129.08 1172.84 140.35 1171.62 150.56 1164.17 159.45 1152.58 166.86 1101.88 183.45 1069.38 200.04 1068.5 216.64 1099.6 233.23 1149.85 249.82 1198.5 266.41 1225.47 283.01 1219.65 299.6 1183.41 316.19 1131.74 332.79 1085.94 349.38 1064.92 365.97 1077.36 382.56 1118.13 399.16 1170.39 415.75 1212.58 432.34 1227.28 448.93 1208.44 465.53 1163.82 482.12 1111.84 498.71 1073.95 515.31 1065.79 531.9 1090.73 548.49 1138.48 565.08 1189.32 581.68 1222.27 598.27 1223.75 614.86 1193.13 631.45 1143.05 648.04 1094.19 664.64 1066.7 681.23 1071.93 697.82 1074.05 708.5 1081.77 715.24 1092.68 718.06 1104.09 717.29 1114.98 707.24 1107.79 694.23 1091.42 688.87 1068.05 685.93 1038.97 686.31 1006.04 690.68 971.44 699.4 937.45 712.45 906.19 729.5 879.42 749.87 858.35 772.62 843.51 796.57 834.77 820.46 831.35 842.98 831.93 862.93 834.82 879.3 831.54 895.02 809.53 885.52 790.16 875.85 767.12 866.15 741.62 857.84 715.07 852.22 713.34 835.6 709.15 823.77 701.66 816.97 690.44 815.05 675.51 817.46 657.27 823.32 636.48 831.5 614.12 840.69 591.27 849.52 568.97 856.67 548.13 860.99 529.42 861.55 513.2 857.75 499.5 849.32 488.07 836.41 478.41 819.47 469.86 799.3 461.69 776.92 453.2 753.53 443.82 730.38 433.15 708.67 421.02 689.47 407.49 673.65 392.79 661.78 377.33 654.1 361.55 650.53 345.92 650.66 330.83 653.78 316.51 658.98 303.06 665.18 284.32 665.58 277.49 643.73 276.07 627.56 274.61 611.38 273.72 595.21 273.76 579.03 274.72 562.86 276.2 546.68 277.59 530.51 278.32 514.33 278.08 498.16 276.98 481.98 275.47 465.81 274.17 449.63 273.62 433.46 274.05 417.28 275.27 401.1 276.8 384.93 277.98 368.75 278.35 352.58 277.73 336.4 276.4 320.23 274.89 304.05 273.84 287.88 273.67 271.7 274.46 255.52 275.87 239.35 277.34 223.17 278.24 207 278.22 190.82 277.27 174.65 275.79 158.47 289.16 145.57 303.34 132.55 318.12 119.85 333.18 107.83 348.08 96.8 362.43 86.95 375.87 78.39 388.22 71.09 399.43 64.94 409.69 59.74 419.37 55.21 428.97 51.04 439.11 46.9 450.37 42.49 463.28 37.55 478.17 31.88 495.17 25.35 514.09 17.91 534.52 9.62 555.76 0.57 576.95 -9.05 597.16 -19.07 615.49 -29.24 631.18 -39.35 643.75 -49.22 653.02 -58.68 659.23 -67.63 663 -76.05 671.57 -98.25 675.42 -105.3" stroke-dasharray="0 10" transform="rotate(45, 711, 400)" opacity="0.75"></path><path d="M695.65 -88.79Q720.73 -80.51 746.92 -71.8 772.92 -62.71 797.36 -53.33 818.97 -43.82 836.68 -34.33 849.81 -25.04 858.12 -16.14 860.4 -0.45 855.06 13.06 852.6 23.24 861.38 32.23 875.12 36.59 894.89 41.29 920.27 46.59 950.21 52.71 983.19 59.83 1017.28 68.04 1050.41 77.37 1080.47 87.74 1105.64 98.99 1124.51 110.88 1136.27 123.09 1140.8 135.29 1138.74 147.11 1131.4 158.19 1120.69 168.22 1108.92 176.96 1067.83 193.02 1051.09 209.08 1065.17 225.15 1104.63 241.21 1154.26 257.28 1194.91 273.34 1210.9 289.41 1196.08 305.47 1156.15 321.54 1106.51 337.6 1066.32 353.66 1051.06 369.73 1066.63 385.79 1107.02 401.86 1156.65 417.92 1196.38 433.99 1210.89 450.05 1194.59 466.12 1153.75 482.18 1104.13 498.25 1064.87 514.31 1051.11 530.38 1068.16 546.44 1109.44 562.5 1159.03 578.57 1197.8 594.63 1210.81 610.7 1193.02 626.76 1151.31 642.83 1101.76 658.89 1063.48 674.96 1051.24 691.02 1059.48 694.46 1079.75 684.38 1082.39 673.95 1066.8 669.51 1047.47 672.76 1022.44 679.93 993.07 691.1 961.15 706.08 928.61 724.37 897.4 745.23 869.24 767.68 845.49 790.66 827.01 812.99 814.09 833.58 806.47 851.4 803.38 865.65 799.69 867.31 778.99 848.56 761.17 840.88 740.01 835.71 732.62 819.73 721.47 808.13 706.59 801.15 688.42 798.67 667.68 800.25 645.3 805.15 622.36 812.4 599.87 820.87 578.75 829.36 559.71 836.67 543.17 841.72 529.26 843.61 517.83 841.69 508.45 835.61 500.53 825.31 493.37 811.07 486.23 793.44 478.48 773.22 469.59 751.39 459.24 729.03 447.32 707.24 433.9 687.06 419.27 669.39 403.82 654.95 388 644.18 372.27 637.25 357.01 634.05 342.5 634.2 328.85 637.05 316.01 641.79 297.78 642.62 291.32 622.4 290.75 607.05 290.27 591.69 290.06 576.34 290.21 560.98 290.66 545.63 291.23 530.27 291.71 514.92 291.91 499.56 291.75 484.21 291.3 468.86 290.72 453.5 290.25 438.15 290.06 422.79 290.23 407.44 290.69 392.08 291.26 376.73 291.73 361.37 291.91 346.02 291.73 330.66 291.27 315.31 290.69 299.96 290.23 284.6 290.06 269.25 290.24 253.89 290.72 238.54 291.29 223.18 291.75 207.83 291.91 192.48 291.72 177.12 291.24 161.77 304.12 148.93 317.79 136.41 332.13 124.57 346.92 113.68 361.8 103.96 376.38 95.5 390.27 88.31 403.15 82.29 414.83 77.26 425.29 72.97 434.69 69.13 443.37 65.43 451.83 61.58 460.64 57.29 470.42 52.35 481.73 46.59 494.99 39.93 510.43 32.37 528.03 23.97 547.51 14.86 568.34 5.21 589.78 -4.76 610.96 -14.85 630.95 -24.85 648.88 -34.56 664.06 -43.84 676.04 -52.6 684.68 -60.8 694.05 -82.08 695.65 -88.79" stroke-dasharray="7 2" transform="rotate(49.5, 711, 400)" opacity="0.72"></path><path d="M723.52 -72.28Q747.54 -64.11 769.96 -55.49 789.71 -46.48 805.96 -37.2 818.15 -27.77 826.11 -18.37 829.46 -0.6 825.98 15.59 824.35 28.24 832.08 38.74 843.96 42.98 861.21 46.92 883.6 50.79 910.42 54.86 940.5 59.38 972.31 64.59 1004.08 70.68 1034.01 77.8 1060.38 86.02 1081.75 95.33 1097.12 105.65 1106.02 116.81 1108.58 128.57 1105.53 140.63 1098.18 152.65 1088.27 164.3 1077.85 175.24 1069.08 185.17 1041.52 200.62 1040.73 216.07 1066.99 231.51 1110.86 246.96 1156.57 262.41 1187.7 277.86 1193.04 293.31 1170.69 308.76 1128.68 324.2 1082.1 339.65 1047.7 355.1 1037.85 370.55 1056.08 386 1095.85 401.45 1142.86 416.9 1180.2 432.34 1194.46 447.79 1180.52 463.24 1143.37 478.69 1096.38 494.14 1056.44 509.59 1037.9 525.04 1047.43 540.48 1081.61 555.93 1128.14 571.38 1170.3 586.83 1192.94 602.28 1187.91 617.73 1157.03 633.18 1111.39 648.63 1067.4 664.07 1040.88 679.52 1043.12 660.25 1026.47 671.16 1005.76 684.41 980.41 700.85 951.78 719.91 921.45 740.79 891.11 762.59 862.38 784.3 836.68 804.91 815.07 823.49 798.2 839.2 786.24 851.41 776.69 849.13 771.26 831 762.76 823.93 750.47 819.2 735.11 803.86 716.57 792.51 695.59 785.39 673.1 782.4 650.11 783.2 627.64 787.18 606.55 793.51 587.55 801.22 571.08 809.25 557.3 816.54 537.98 823.45 523.56 820.82 517.57 812.99 511.19 801.38 503.83 786.37 495.08 768.52 484.69 748.62 472.64 727.56 459.07 706.31 444.29 685.84 428.7 667.02 412.78 650.63 396.96 637.26 381.62 627.26 367.04 620.78 353.36 617.68 340.56 617.62 328.49 620.05 311.28 619.57 305.95 600.35 306.26 585.82 306.46 571.28 306.49 556.75 306.34 542.22 306.07 527.68 305.76 513.15 305.53 498.61 305.47 484.08 305.59 469.55 305.86 455.01 306.17 440.48 306.41 425.95 306.5 411.41 306.41 396.88 306.16 382.34 305.85 367.81 305.59 353.28 305.47 338.74 305.53 324.21 305.76 309.67 306.07 295.14 306.35 280.61 306.49 266.07 306.46 251.54 306.25 237.01 305.95 222.47 305.66 207.94 305.49 193.41 305.49 178.87 305.68 164.34 318.07 152.06 331.2 140.47 345.08 129.84 359.55 120.34 374.37 112.08 389.18 105.08 403.59 99.24 417.24 94.41 429.8 90.37 441.09 86.84 451.05 83.53 459.8 80.16 467.66 76.44 475.06 72.15 482.55 67.1 490.75 61.18 500.25 54.35 511.53 46.63 524.96 38.11 540.67 28.93 558.57 19.27 578.31 9.35 599.32 -0.63 620.86 -10.48 642.05 -20.01 662 -29.09 679.86 -37.62 694.97 -45.56 706.87 -52.93 715.42 -59.77 722.16 -69.23 723.52 -72.28" stroke-dasharray="7 9" transform="rotate(54, 711, 400)" opacity="0.70"></path><path d="M745.14 -55.77Q762.74 -47.72 777.13 -39.21 787.91 -30.32 795.01 -21.14 798.69 -11.82 799.54 -2.52 796.65 15.09 794.89 31.2 797.7 38.07 804.26 44.17 815.24 49.51 830.93 54.15 851.24 58.23 875.64 61.9 903.2 65.38 932.69 68.91 962.67 72.73 991.57 77.08 1017.87 82.18 1040.24 88.2 1057.63 95.25 1069.4 103.4 1075.4 112.62 1075.96 122.81 1071.93 133.8 1064.57 145.37 1055.49 157.24 1046.49 169.09 1039.45 180.6 1036.1 191.45 1023.96 206.2 1037.55 220.96 1072.33 235.72 1116.69 250.48 1155.8 265.24 1176.6 279.99 1172.13 294.75 1143.89 309.51 1101.32 324.27 1058.64 339.03 1030.1 353.78 1025.25 368.54 1045.7 383.3 1084.61 398.06 1129 412.81 1164.03 427.57 1178 442.33 1166.23 457.09 1132.67 471.85 1088.52 486.6 1048.54 501.36 1026.08 516.12 1028.64 530.88 1055.37 545.63 1097.34 560.39 1140.53 575.15 1170.51 589.91 1177.26 604.66 1158.53 619.42 1120.57 634.18 1076.08 648.94 1039.9 663.69 1017.85 662.78 1002.1 659.75 1014.37 646.7 1015.27 664.23 1004.33 679.09 988.13 696.52 967.2 715.87 942.47 736.37 915.16 757.17 886.65 777.38 858.39 796.15 831.73 812.67 807.85 826.32 787.62 836.61 771.57 843.28 759.84 846.3 749.38 841.27 746.68 829.28 746.36 814.12 741.25 802.69 719.79 787.99 697.11 776.92 674.18 769.69 651.95 766.25 631.25 766.34 612.71 769.43 596.75 774.84 583.52 781.75 572.9 789.24 564.59 796.37 552.85 804.7 542.44 805.04 536.37 799.46 528.97 790.37 519.93 777.96 509.13 762.62 496.63 744.93 482.65 725.6 467.55 705.45 451.74 685.32 435.69 666.06 419.84 648.42 404.54 633.06 390.06 620.48 376.53 610.98 363.95 604.66 352.2 601.43 341.06 601 325.3 597.81 321.48 578.99 322.45 565.25 322.93 551.51 322.76 537.77 321.99 524.03 320.89 510.29 319.82 496.55 319.14 482.81 319.08 469.07 319.65 455.33 320.67 441.59 321.79 427.85 322.65 414.11 322.95 400.36 322.59 386.62 321.7 372.88 320.57 359.14 319.58 345.4 319.06 331.66 319.18 317.92 319.91 304.18 320.99 290.44 322.08 276.7 322.8 262.96 322.91 249.21 322.38 235.47 321.38 221.73 320.26 207.99 319.37 194.25 319.02 180.51 319.33 166.77 331.13 155.52 343.62 145.22 356.88 136.05 370.87 128.09 385.43 121.36 400.29 115.78 415.13 111.21 429.54 107.43 443.16 104.2 455.68 101.26 466.86 98.3 476.62 95.09 491.95 86.54 505.19 75.57 511.85 68.52 519.45 60.62 528.55 51.98 539.6 42.75 552.89 33.11 568.53 23.26 586.38 13.41 606.08 3.75 627.08 -5.56 648.62 -14.4 669.9 -22.68 690.02 -30.35 708.18 -37.43 723.7 -43.97 740.61 -52.91 745.14 -55.77" stroke-dasharray="2 1" transform="rotate(58.5, 711, 400)" opacity="0.68"></path><path d="M749.74 -39.26Q758.8 -31.35 764.72 -22.97 767.82 -14.21 768.67 -5.16 768.05 4.02 766.93 13.22 766.35 22.24 767.35 30.93 770.91 39.13 777.81 46.72 788.61 53.59 803.56 59.7 822.57 65.04 845.2 69.66 870.72 73.64 898.12 77.13 926.16 80.31 953.56 83.4 978.99 86.63 1001.26 90.22 1019.39 94.4 1032.7 99.35 1041.86 112.69 1037.93 129.17 1030.71 139.15 1022.59 149.91 1015.18 161.24 1010.03 172.88 1008.59 184.55 1012.04 195.93 1015.12 209.94 1040.14 223.95 1079.36 237.97 1120.63 251.98 1151.18 265.99 1161.55 280 1148.53 294.02 1116.15 308.03 1074.44 322.04 1036.3 336.05 1013.55 350.07 1013.22 364.08 1035.42 378.09 1073.28 392.1 1115.07 406.12 1147.86 420.13 1161.5 434.14 1151.77 448.15 1121.67 462.17 1080.54 476.18 1041.09 490.19 1015.54 504.2 1011.8 518.22 1031.03 532.23 1067.27 546.24 1109.31 560.25 1144.13 574.26 1160.95 588.28 1154.58 602.29 1126.97 616.3 1086.68 630.31 1046.18 644.32 1018.99 641.27 996.59 636.96 979.67 632.05 968.48 627.22 970.58 624.17 983.61 634.53 988.16 645.3 989.72 658.87 987.33 674.87 980.41 692.78 968.74 711.98 952.5 731.72 932.2 751.25 908.7 769.79 883.03 786.62 856.4 801.11 830.01 812.76 805.02 821.25 782.42 826.41 762.96 828.3 747.12 827.17 735.06 823.43 722.67 810.43 717.69 796.04 717.42 790.12 716.95 786.19 694.28 772.12 672.62 761.34 652.72 754.04 635.13 750.21 620.18 749.63 607.97 751.89 598.35 756.4 591 762.49 581.17 775.78 572.71 786.62 560.54 786.79 543.63 778.02 532.05 768.14 518.83 755.34 504.26 740.04 488.73 722.77 472.68 704.18 456.56 685 440.79 665.96 425.7 647.79 411.52 631.15 398.37 616.6 386.23 604.56 375 595.31 364.46 588.94 354.34 585.39 340.19 578.52 337.84 559.63 339.09 546.63 339.37 533.63 338.61 520.63 337.05 507.64 335.15 494.64 333.52 481.64 332.65 468.64 332.82 455.64 333.97 442.65 335.75 429.65 337.6 416.65 338.96 403.65 339.4 390.65 338.78 377.66 337.31 364.66 335.42 351.66 333.72 338.66 332.72 325.66 332.73 312.66 333.76 299.67 335.47 286.67 337.35 273.67 338.81 260.67 339.4 247.67 338.93 234.67 337.56 221.68 335.7 208.68 333.93 195.68 332.8 182.68 332.66 169.68 343.71 159.83 355.38 151.09 367.8 143.54 381.03 137.18 395.02 131.94 409.6 127.68 424.51 124.2 439.43 121.29 453.97 118.68 467.77 116.11 480.49 113.33 491.88 110.1 501.78 106.24 510.21 101.61 517.3 96.1 523.35 89.69 528.79 82.41 534.13 74.33 539.95 65.58 546.84 56.31 555.32 46.72 565.81 36.98 578.6 27.31 593.76 17.86 611.17 8.79 630.51 0.22 651.25 -7.77 672.7 -15.15 694.09 -21.93 714.57 -28.15 733.36 -33.89 749.74 -39.26 749.74 -39.26 749.74 -39.26" stroke-dasharray="9 1" transform="rotate(63, 711, 400)" opacity="0.65"></path><path d="M735.02 -22.76Q737.71 -6.57 737.77 10.73 738.33 19.78 740.55 28.85 745.21 37.76 752.92 46.37 764.09 54.53 778.89 62.11 797.21 69.01 818.65 75.16 842.58 80.55 868.13 85.19 894.29 89.15 919.95 92.56 944 95.55 965.41 98.31 983.31 101.06 997.09 104 1006.36 120.1 996.79 136.21 989.89 144.95 984.27 154.62 981.22 165.07 981.89 176.11 987.19 187.49 997.7 198.94 1013.97 212.18 1046.55 225.42 1086.11 238.66 1121.35 251.89 1142.2 265.13 1142.68 278.37 1122.68 291.6 1087.9 304.84 1048.28 318.08 1015.16 331.31 998 344.55 1001.71 357.79 1025.23 371.02 1061.83 384.26 1101.05 397.49 1131.68 410.73 1144.96 423.97 1137.09 437.2 1110.33 450.44 1072.33 463.68 1033.94 476.91 1006.14 490.15 996.89 503.39 1008.82 516.62 1038.53 529.86 1077.51 543.1 1114.64 556.33 1139.28 569.57 1144.41 582.8 1128.55 596.04 1096.23 609.28 1056.71 622.51 1027.01 618.4 1000.21 613.89 977.36 609.57 959.18 606.06 939.2 611.14 943.36 627.47 949.07 640.01 954.06 654.8 957.19 671.44 957.47 689.38 954.16 708.02 946.81 726.68 935.3 744.7 919.79 761.43 900.74 776.29 878.86 788.78 855.05 798.55 830.28 805.36 805.6 809.17 781.97 810.07 760.27 808.33 741.15 804.38 725.1 798.76 712.31 792.11 697.37 779.2 689.67 769.68 671.11 756.24 655.03 745.77 641.63 738.45 630.95 734.28 617.51 735.66 608.82 743.48 601.94 755.86 592.59 766.86 585.38 769.92 576.34 770.74 565.42 768.96 552.78 764.35 538.65 756.85 523.41 746.56 507.47 733.73 491.27 718.73 475.24 702.08 459.75 684.34 445.09 666.15 431.47 648.14 418.94 630.95 407.49 615.14 396.98 601.2 387.21 589.5 377.91 580.3 368.79 573.7 356.12 562.68 354.76 543.37 355.8 531.05 355.46 518.72 353.85 506.4 351.42 494.08 348.87 481.76 346.93 469.44 346.15 457.11 346.75 444.79 348.57 432.47 351.08 420.15 353.57 407.82 355.32 395.5 355.83 383.18 354.96 370.86 352.96 358.53 350.4 346.21 348 333.89 346.46 321.57 346.22 309.24 347.34 296.92 349.51 284.6 352.1 272.28 354.38 259.95 355.68 247.63 355.65 235.31 354.29 222.99 351.98 210.66 349.4 198.34 347.27 186.02 346.2 173.7 356.35 165.5 367 158.46 378.35 152.57 390.51 147.74 403.53 143.85 417.37 140.72 431.86 138.14 446.77 135.86 461.79 133.64 476.54 131.24 490.67 128.44 503.82 125.06 515.7 120.95 526.1 116.01 534.95 110.18 542.29 103.48 548.31 95.96 553.33 87.72 557.79 78.88 562.19 69.61 567.1 60.1 573.09 50.52 580.65 41.05 590.21 31.85 602.05 23.06 616.27 14.79 632.8 7.1 651.37 0.03 671.54 -6.42 692.69 -12.32 714.11 -17.73 735.02 -22.76 735.02 -22.76 735.02 -22.76" stroke-dasharray="4 3" transform="rotate(67.5, 711, 400)" opacity="0.63"></path><path d="M708.33 -6.26Q710.1 9.58 715.12 26.55 721.16 35.44 730.02 44.36 741.96 53.15 757.04 61.68 775.1 69.79 795.76 77.36 818.43 84.29 842.36 90.51 866.7 95.98 890.5 100.7 912.84 104.71 932.86 108.11 949.84 111.01 963.22 113.56 969.34 130.5 957.83 144.18 954.26 151.57 953.52 159.94 956.49 169.22 963.8 179.28 975.84 189.94 992.65 201 1018.68 213.46 1054.52 225.91 1090.75 238.37 1117.84 250.82 1128.66 263.28 1120.36 275.73 1095.13 288.19 1059.61 300.64 1023.13 313.1 995.3 325.55 983.44 338.01 990.67 350.47 1015.08 362.92 1050.26 375.38 1086.94 387.83 1115.49 400.29 1128.38 412.74 1122.23 425.2 1098.66 437.66 1063.86 450.11 1026.99 462.57 997.75 475.02 983.84 487.48 988.91 499.93 1011.63 512.39 1046.02 524.85 1083.04 537.3 1112.94 549.76 1127.86 562.21 1123.87 574.67 1102.03 587.13 1068.07 599.58 1038.6 595.48 1010.09 591.72 983.72 588.8 960.45 587.22 941.03 587.38 925.92 589.62 915.28 594.18 908.97 601.18 906.54 610.62 907.32 622.37 910.43 636.18 914.87 651.7 919.57 668.49 923.49 686.02 925.68 703.73 925.32 721.04 921.8 737.38 914.76 752.23 904.08 765.12 889.88 775.69 872.53 783.68 852.59 788.98 830.79 791.58 807.93 791.63 784.88 789.42 762.46 785.34 741.44 779.88 722.44 773.63 705.93 767.21 692.17 761.25 681.25 756.38 673.02 753.17 661.76 740.36 653.08 730.21 633.34 725.12 622.91 736.11 616.09 741.87 607.4 746.86 596.82 750.54 584.48 752.42 570.61 752.14 555.56 749.41 539.73 744.1 523.53 736.2 507.4 725.83 491.71 713.23 476.8 698.77 462.88 682.87 450.09 666.04 438.47 648.83 427.95 631.79 418.37 615.47 409.52 600.35 401.13 586.87 392.94 575.36 384.67 566.05 376.1 559.08 367.04 554.42 369.98 542.7 371.87 530.98 372.22 519.26 370.92 507.54 368.34 495.81 365.13 484.09 362.15 472.37 360.19 460.65 359.75 448.93 360.95 437.21 363.48 425.48 366.68 413.76 369.69 402.04 371.73 390.32 372.26 378.6 371.14 366.88 368.67 355.15 365.5 343.43 362.45 331.71 360.34 319.99 359.71 308.27 360.74 296.55 363.15 284.82 366.31 273.1 369.38 261.38 371.57 249.66 372.28 237.94 371.35 226.22 369 214.5 365.87 202.77 362.76 191.05 360.51 179.33 369.68 172.91 379.19 167.57 389.26 163.24 400.08 159.79 411.77 157.04 424.38 154.8 437.87 152.85 452.11 150.95 466.9 148.89 481.94 146.47 496.9 143.49 511.43 139.82 525.15 135.36 537.75 130.05 548.97 123.88 558.64 116.89 566.72 109.14 573.26 100.75 578.47 91.87 582.66 82.64 586.24 73.25 589.72 63.86 593.63 54.64 598.51 45.73 604.85 37.26 613.08 29.31 623.51 21.95 636.29 15.21 651.42 9.07 668.73 3.5 687.86 -1.58 708.33 -6.26 708.33 -6.26 708.33 -6.26" stroke-dasharray="5 4" transform="rotate(72, 711, 400)" opacity="0.60"></path><path d="M682.96 10.24Q686.44 17.66 691.81 25.52 699.48 33.77 709.74 42.3 722.69 51 738.31 59.75 756.36 68.41 776.44 76.83 798.03 84.89 820.45 92.45 842.98 99.42 864.81 105.71 885.21 111.29 903.45 116.12 918.97 120.25 931.32 123.71 933.33 142.36 925.76 153.32 927.53 159.3 932.92 166.24 942.35 174.14 955.98 182.93 973.73 192.5 995.26 202.72 1026.79 214.41 1061.74 226.1 1091.7 237.8 1109.42 249.49 1110.65 261.19 1095.07 272.88 1066.46 284.57 1031.7 296.27 999.19 307.96 976.76 319.66 969.82 331.35 980.04 343.04 1004.96 354.74 1038.58 366.43 1072.77 378.13 1099.31 389.82 1111.78 401.52 1107.18 413.21 1086.62 424.9 1055.05 436.6 1020.1 448.29 990.18 459.99 972.52 471.68 971.38 483.38 987.02 495.07 1015.68 506.76 1050.45 518.46 1082.93 530.15 1105.3 541.85 1112.17 553.54 1101.86 565.24 1076.88 576.93 1050.08 573.78 1022.56 571.53 995.39 570.6 969.6 571.31 946.08 573.94 925.59 578.67 908.66 585.6 895.58 594.7 886.41 605.86 880.96 618.88 878.81 633.45 879.36 649.19 881.85 665.66 885.43 682.4 889.23 698.88 892.36 714.64 894.02 729.19 893.53 742.13 890.36 753.1 884.17 761.84 874.83 768.2 862.38 772.12 847.08 773.67 829.35 773.02 809.75 770.44 788.91 766.3 767.56 761.07 746.38 755.23 726.04 749.33 707.12 743.92 690.11 739.53 675.31 736.66 671.01 724.47 668.22 714.67 653.32 707.13 636.75 716.3 626.13 721.74 613.77 726.73 599.93 730.79 584.92 733.48 569.13 734.41 552.97 733.29 536.86 729.93 521.15 724.24 506.19 716.24 492.2 706.06 479.36 693.93 467.73 680.14 457.29 665.1 447.92 649.22 439.45 632.99 431.65 616.87 424.25 601.33 417 586.8 409.63 573.66 401.93 562.22 393.72 552.7 384.89 545.24 387.6 534.05 388.72 522.85 387.98 511.65 385.55 500.46 382.02 489.26 378.25 478.07 375.13 466.87 373.44 455.67 373.56 444.48 375.48 433.28 378.73 422.09 382.52 410.89 385.95 399.69 388.18 388.5 388.68 377.3 387.33 366.11 384.45 354.91 380.73 343.71 377.08 332.52 374.38 321.32 373.27 310.13 374.02 298.93 376.46 287.74 379.99 276.54 383.76 265.34 386.87 254.15 388.56 242.95 388.42 231.76 386.5 220.56 383.25 209.37 381.84 190.23 392.58 178.52 401.31 175.56 410.62 173.23 420.7 171.35 431.68 169.72 443.63 168.12 456.53 166.36 470.3 164.23 484.76 161.59 499.66 158.29 514.72 154.23 529.58 149.36 543.9 143.66 557.34 137.13 569.59 129.86 580.42 121.92 589.68 113.43 597.31 104.55 603.38 95.41 608.07 86.19 611.66 77.04 614.54 68.11 617.15 59.53 624.24 44.1 635 30.4 643.56 24.6 654.37 19.35 675.24 12.42 682.96 10.24" stroke-dasharray="10 2" transform="rotate(76.5, 711, 400)" opacity="0.57"></path><path d="M671.57 26.75Q681.02 33.97 692.78 41.62 706.83 49.66 723.03 57.97 741.11 66.47 760.65 75.03 781.15 83.53 802.02 91.83 822.64 99.81 842.36 107.35 860.58 114.35 876.73 120.73 890.39 126.42 901.23 131.41 901.88 155.27 903.91 163.78 911.78 168.38 923.3 173.86 938.49 180.27 957.13 187.59 978.82 195.79 1002.97 204.78 1035.57 215.75 1066.06 226.73 1087.73 237.7 1095.81 248.67 1088.52 259.64 1067.47 270.62 1037.29 281.59 1004.62 292.56 976.66 303.53 959.56 314.5 957.08 325.48 969.78 336.45 994.85 347.42 1026.78 358.39 1058.53 369.37 1083.13 380.34 1095.14 391.31 1091.94 402.28 1074.21 413.26 1045.88 424.23 1013.16 435.2 983.27 446.17 962.79 457.15 956.22 468.12 965.01 479.09 987.23 490.06 1017.98 501.04 1050.5 512.01 1077.62 522.98 1093.38 533.96 1094.3 544.93 1080.19 555.9 1057.93 554.41 1033.69 554.22 1008.33 555.59 982.75 558.73 957.83 563.77 934.39 570.77 913.15 579.7 894.68 590.46 879.38 602.84 867.47 616.6 858.94 631.41 853.64 646.9 851.2 662.65 851.11 678.25 852.75 693.28 855.43 707.33 858.41 720.04 860.96 731.08 854.04 750.83 836.66 754.26 823.7 751.42 808.44 747.3 791.26 742.32 772.67 736.9 753.21 731.52 733.47 726.64 714.02 722.71 695.39 720.15 693.55 700.28 690.01 687.1 679.73 684.84 664.06 688.03 653.01 692.01 640.31 696.71 626.24 701.71 611.12 706.55 595.32 710.79 579.22 714.02 563.22 715.89 547.68 716.1 532.89 714.42 519.09 710.72 506.46 704.93 495.05 697.09 484.88 687.31 475.85 675.81 467.83 662.83 460.59 648.72 453.9 633.83 447.51 618.57 441.16 603.33 434.61 588.53 427.66 574.52 420.15 561.66 411.98 550.22 403.12 540.42 404.98 529.68 404.86 518.94 402.78 508.21 399.22 497.47 394.94 486.73 390.9 475.99 387.98 465.26 386.82 454.52 387.68 443.78 390.38 433.04 394.31 422.31 398.61 411.57 402.34 400.83 404.67 390.09 405.09 379.36 403.51 368.62 400.27 357.88 396.1 347.14 391.9 336.41 388.6 325.67 386.93 314.93 387.26 304.2 389.51 293.46 393.18 282.72 397.48 271.98 401.45 261.25 404.22 250.51 405.18 239.77 404.11 229.04 401.26 218.3 398.8 200.62 407.66 191.25 423.22 187.95 440.45 185.2 450.48 183.68 461.5 181.8 473.53 179.42 486.53 176.41 500.37 172.67 514.86 168.16 529.76 162.84 544.76 156.73 559.54 149.88 573.75 142.35 587.09 134.27 599.25 125.74 610 116.91 619.2 107.93 626.77 98.93 632.75 90.07 640.12 73.48 644.89 58.27 649.53 45.88 656.87 35.21 667.38 28.77 671.57 26.75" stroke-dasharray="3 7" transform="rotate(81, 711, 400)" opacity="0.55"></path><path d="M679.84 43.27Q694.87 50.27 711.5 57.7 729.41 65.5 748.21 73.58 767.43 81.85 786.56 90.2 805.07 98.51 822.46 106.67 838.25 114.55 852.05 122.05 863.55 129.07 872.53 135.52 874.9 161.64 870.34 167.43 877.64 170.95 893.63 175.62 907.12 178.96 923.69 183.04 943.04 187.95 964.72 193.72 988.17 200.38 1012.69 207.88 1042.32 218.19 1065.68 228.49 1078.1 238.8 1077.1 249.1 1062.88 259.41 1038.27 269.71 1008.22 280.02 978.71 290.32 955.67 300.63 943.69 310.93 945.17 321.24 959.82 331.54 984.71 341.85 1014.86 352.15 1044.23 362.46 1066.95 372.77 1078.48 383.07 1076.52 393.38 1061.44 403.68 1036.28 413.99 1006.06 424.29 976.82 434.6 954.43 444.9 943.34 455.21 945.79 465.51 961.28 475.82 986.71 486.12 1017.01 496.43 1046.09 506.73 1068.16 517.04 1078.8 527.34 1075.87 537.65 1059.25 538.28 1039.92 540.4 1018.46 544.14 995.54 549.6 971.88 556.79 948.23 565.68 925.31 576.15 903.78 588.04 884.23 601.11 867.12 615.08 852.76 629.64 841.32 644.44 832.83 659.13 827.14 673.35 823.98 686.75 822.96 699.01 825.51 718.16 829.49 731.95 825.09 734.33 811.94 728.34 801.53 723.64 788.95 718.65 774.46 713.77 758.41 709.39 741.19 705.89 723.27 703.64 721.51 692.68 718.4 683.61 706.25 672.56 688.67 667.47 676.83 668.07 663.53 670.13 649.04 673.35 633.7 677.38 617.87 681.86 601.91 686.4 586.18 690.63 571 694.19 556.64 696.73 543.32 697.98 531.18 697.69 520.3 695.7 510.65 691.9 502.18 686.24 494.74 678.77 488.15 669.58 482.18 658.84 476.6 646.77 471.14 633.66 465.58 619.79 459.71 605.5 453.34 591.15 446.35 577.05 438.65 563.55 430.22 550.95 421.08 539.49 421.53 529.16 419.88 518.82 416.45 508.49 411.93 498.16 407.22 487.83 403.27 477.5 400.86 467.16 400.48 456.83 402.2 446.5 405.69 436.17 410.23 425.84 414.92 415.5 418.83 405.17 421.18 394.84 421.48 384.51 419.69 374.18 416.16 363.84 411.59 353.51 406.91 343.18 403.04 332.85 400.77 322.51 400.54 312.18 402.4 301.85 405.98 291.52 410.56 281.19 415.23 270.85 419.06 260.52 421.27 250.19 421.42 239.86 419.49 229.52 424 208.73 437.55 203.33 452.02 200.72 468.54 197.02 478.36 194.22 489.22 190.72 501.11 186.48 513.97 181.47 527.67 175.7 542.03 169.21 556.81 162.07 571.71 154.36 586.44 146.2 600.67 137.69 614.1 128.98 626.43 120.2 637.44 111.49 646.96 102.96 654.88 94.73 661.19 86.9 668.85 73.01 673.26 60.8 677.84 47.3 679.84 43.27" stroke-dasharray="11 9" transform="rotate(85.5, 711, 400)" opacity="0.53"></path><path d="M703.65 59.78Q721 66.56 738.66 73.74 756.23 81.29 773.28 89.11 789.39 97.12 804.19 105.24 817.33 113.34 828.56 121.33 837.68 129.09 844.62 136.53 850.88 157.87 848.22 169.99 850.62 181.57 866.43 185.56 878.97 187.02 894.16 188.81 911.8 191.07 931.53 193.91 952.91 197.41 975.39 201.67 998.36 206.73 1021.17 212.62 1044.66 222.32 1059.35 232.02 1062.59 241.72 1053.78 251.42 1034.53 261.12 1008.31 270.82 979.86 280.52 954.33 290.22 936.33 299.92 929.12 309.62 934.01 319.32 950.1 329.02 974.49 338.72 1002.77 348.42 1029.82 358.12 1050.76 367.82 1061.8 377.52 1060.93 387.22 1048.33 396.92 1026.26 406.62 998.72 416.32 970.68 426.02 947.23 435.72 932.59 445.42 929.42 455.12 938.28 464.82 957.59 474.52 983.83 484.22 1012.28 493.92 1037.78 503.62 1053.94 519.64 1038.53 530.37 1022.27 536.31 1003.81 543.78 983.62 552.71 962.27 563 940.37 574.48 918.53 586.94 897.33 600.15 877.32 613.84 858.98 627.72 842.69 641.48 828.74 654.82 817.28 667.46 808.36 679.13 801.89 689.58 787.69 702.87 769.8 692.19 758.22 689.1 745.01 687.13 738.78 676.78 730.76 668.1 720.98 661.2 709.57 656.11 696.7 652.82 682.64 651.23 667.68 651.2 652.16 652.55 636.4 655.03 620.74 658.37 605.51 662.26 590.97 666.39 577.36 670.45 564.85 674.11 553.54 677.08 543.49 679.08 527.52 678.57 514.55 673.55 509.37 668.21 504.58 661.27 499.97 652.8 495.29 642.94 490.33 631.87 484.92 619.81 478.92 607 472.22 593.73 464.77 580.27 456.56 566.91 447.63 553.94 438.05 541.61 436.77 531.65 433.53 521.69 428.93 511.73 423.8 501.76 419.07 491.8 415.59 481.84 413.99 471.88 414.56 461.92 417.2 451.95 421.43 441.99 426.49 432.03 431.45 422.07 435.43 412.11 437.7 402.15 437.86 392.18 435.87 382.22 432.09 372.26 427.22 362.3 422.12 352.34 417.72 342.38 414.82 332.41 413.94 322.45 415.24 312.49 418.48 302.53 423.09 292.57 428.22 282.61 432.94 272.65 436.42 262.68 438 252.72 437.42 242.76 442.46 223.74 454.58 219.26 466.15 216.24 478.87 211.73 486.38 208.39 494.77 204.33 504.16 199.55 514.6 194.05 526.09 187.87 538.56 181.05 551.9 173.69 565.94 165.87 580.46 157.69 595.2 149.29 609.88 140.77 624.2 132.26 637.86 123.87 650.6 115.72 662.16 107.9 672.36 100.5 681.04 93.57 688.15 87.17 701.89 64.76 703.65 59.78" stroke-dasharray="8 8" transform="rotate(90, 711, 400)" opacity="0.50"></path><path d="M731.12 76.29Q746.54 82.82 761.09 89.75 774.47 97.02 786.42 104.56 796.73 112.3 805.26 120.16 815.9 135.73 821.36 150.77 817.98 172.36 814.62 184.95 824.37 194.58 841.61 199.06 853.74 200.13 868.13 201.1 884.59 202.1 902.85 203.24 922.52 204.65 943.18 206.45 964.33 208.75 985.45 211.63 1006 215.19 1025.46 219.46 1040.83 228.62 1046.48 237.78 1041.48 246.94 1026.64 256.1 1004.39 265.25 978.33 274.41 952.71 283.57 931.68 292.73 918.67 301.89 915.79 311.05 923.51 320.21 940.57 329.36 964.21 338.52 990.57 347.68 1015.37 356.84 1034.59 366 1045.09 375.16 1045.18 384.31 1034.83 393.47 1015.74 402.63 990.99 411.79 964.62 420.95 940.91 430.11 923.72 439.26 915.84 448.42 918.54 457.58 931.4 466.74 952.32 475.9 977.9 485.05 1003.98 494.21 1026.33 503.37 1041.31 512.53 1035.98 517.65 1027.98 524.11 1017.37 531.89 1004.29 540.91 988.99 551.05 971.83 562.17 953.21 574.09 933.57 586.59 913.43 599.44 893.26 612.41 873.56 625.24 854.77 637.67 837.3 649.48 821.49 660.43 807.58 670.32 795.76 678.99 779.59 691.42 769.45 699.4 761.82 678.77 749.8 670.62 738.32 660.88 725.5 652.6 711.57 645.88 696.82 640.75 681.54 637.21 666.04 635.2 650.63 634.6 635.6 635.28 621.22 637.05 607.7 639.69 595.21 642.95 583.89 646.59 573.78 650.34 564.91 653.92 543.44 660.12 531.83 659.08 523.97 650.09 515.31 636.9 510.1 628.01 504.2 618 497.54 607.05 490.11 595.36 481.91 583.14 473.01 570.63 463.48 558.06 453.44 545.68 450.35 536.08 445.74 526.47 440.36 516.87 435.08 507.26 430.76 497.66 428.11 488.05 427.55 478.45 429.18 468.84 432.72 459.24 437.62 449.63 443.06 440.03 448.16 430.42 452.1 420.82 454.24 411.21 454.22 401.61 452.05 392 448.09 382.4 442.97 372.79 437.53 363.18 432.65 353.58 429.13 343.97 427.54 334.37 428.14 324.76 430.82 315.16 435.16 305.55 440.45 295.95 445.82 286.34 450.41 276.73 453.47 267.13 454.51 257.52 461.79 239.56 473.65 235.17 483.3 231.28 493.11 225.67 505 216.75 519.15 205.84 527.84 199.3 537.58 192.24 548.36 184.73 560.15 176.88 572.86 168.79 586.33 160.55 600.39 152.3 614.82 144.12 629.36 136.12 643.74 128.39 657.7 121.02 670.96 114.07 683.28 107.59 694.43 101.62 704.24 96.17 712.59 91.25 727.56 79.71 731.12 76.29" stroke-dasharray="8 11" transform="rotate(94.50000000000001, 711, 400)" opacity="0.47"></path><path d="M748.56 92.8Q758.93 99.08 767.87 105.73 775.29 112.7 781.16 119.95 787.74 134.98 790.47 150.12 789.07 164.62 786.98 178.23 791.04 196.57 801.13 206.82 809.26 209.63 819.4 211.91 831.51 213.74 845.49 215.17 861.17 216.28 878.3 217.17 896.58 217.93 915.64 218.68 935.08 219.52 954.49 220.55 973.42 221.89 991.46 223.64 1008.2 225.88 1023.28 228.69 1029.83 237.36 1027.11 246.04 1015.52 254.71 996.74 263.38 973.49 272.06 949.15 280.73 927.26 289.4 910.99 298.08 902.71 306.75 903.62 315.42 913.59 324.1 931.17 332.77 953.8 341.44 978.2 350.12 1000.84 358.79 1018.41 367.46 1028.37 376.14 1029.27 384.81 1020.99 393.48 1004.72 402.16 982.83 410.83 958.49 419.5 935.25 428.18 916.46 436.85 904.87 445.52 902.16 454.2 908.71 462.87 923.58 471.54 944.61 480.22 968.74 488.89 992.48 497.56 1012.37 506.24 1011.32 513.21 1008.16 521.29 1002.77 530.39 995.09 540.4 985.19 551.17 973.18 562.55 959.27 574.36 943.72 586.39 926.85 598.45 909.04 610.33 890.65 621.83 872.1 632.74 853.78 642.88 836.06 652.1 819.29 660.25 803.77 667.22 789.74 672.94 777.37 677.35 758.93 681.64 745.83 682.29 738.01 661.3 735.23 654.11 720.53 644.97 705.45 637.1 690.27 630.59 675.26 625.47 660.69 621.75 646.77 619.37 633.72 618.27 621.68 618.34 610.77 619.43 601.04 621.38 585.69 627.2 573.56 633.76 554.68 641.35 544.8 638.2 534.47 627.83 521.9 613.87 514.26 604.99 505.89 595.22 496.85 584.69 487.25 573.59 477.2 562.11 466.81 550.43 462.17 541.18 456.63 531.94 450.99 522.7 446.08 513.45 442.61 504.21 441.08 494.97 441.71 485.73 444.42 476.48 448.8 467.24 454.23 458 459.92 448.76 465.03 439.51 468.83 430.27 470.76 421.03 470.55 411.78 468.22 402.54 464.12 393.3 458.84 384.05 453.14 374.81 447.85 365.57 443.75 356.33 441.42 347.08 441.21 337.84 443.14 328.6 446.94 319.35 452.05 310.11 457.73 300.87 463.16 291.62 467.55 282.38 470.26 273.14 481.15 255.58 493.88 250.57 508.94 239.77 519.3 228.86 529.52 216.53 541.86 202.75 549.58 195.21 558.3 187.43 568.06 179.5 578.83 171.53 590.56 163.6 603.15 155.82 616.46 148.25 630.3 140.99 644.47 134.1 658.74 127.62 672.86 121.61 686.59 116.08 699.67 111.05 711.89 106.51 723.03 102.45 732.93 98.85 745.01 94.22 748.56 92.8" stroke-dasharray="5 3" transform="rotate(99, 711, 400)" opacity="0.45"></path><path d="M747.27 109.31Q755.45 121.68 759.12 135.27 759.55 149.64 758.49 164.26 758.07 178.52 760.43 191.84 767.46 203.68 780.54 213.66 800.26 221.55 826.38 227.31 857.73 231.15 892.4 233.47 927.91 234.83 961.54 235.93 990.7 237.53 1013.27 240.34 1001.98 256.81 965.27 273.27 921.45 289.74 892.35 306.21 892.5 322.68 921.81 339.14 965.67 355.61 1002.22 372.08 1013.22 388.55 993.2 405.01 952.13 421.48 910.5 437.95 889.06 454.42 898.5 470.88 934.12 487.35 978.16 503.82 980.28 521.28 975.99 541.5 964.22 563.42 944.91 585.76 918.98 607.2 888.16 626.44 854.72 642.4 821.16 654.28 789.87 661.67 762.81 664.6 741.29 663.53 725.82 659.33 712.67 647.03 708.59 637.6 680.41 621.61 655.18 610.27 633.99 603.74 617.34 601.72 605.1 603.48 596.54 607.93 585.45 618.79 573.61 625.5 564.32 623.57 552.03 617.49 536.7 607.09 518.75 592.65 498.91 574.81 478.1 554.54 466.57 536.83 457.23 519.12 454.76 501.4 460.38 483.69 471.28 465.98 482.04 448.26 487.29 430.55 484.4 412.84 474.83 395.12 463.34 377.41 455.66 359.7 455.62 341.98 463.24 324.27 474.73 306.56 484.34 288.84 487.3 271.13 501.95 268.98 514.08 265.01 523.79 258.85 531.54 250.34 538.2 239.57 544.91 226.84 552.9 212.64 563.37 197.55 577.24 182.25 595.02 167.39 616.7 153.55 641.68 141.18 668.84 130.56 696.65 121.8 723.37 114.8 747.27 109.31 747.27 109.31 747.27 109.31" stroke-dasharray="6 6" transform="rotate(103.5, 711, 400)" opacity="0.43"></path><path d="M727.89 125.81Q729.28 137.59 729.31 150.52 729.57 164.21 731.75 178.22 737.41 192.02 747.76 205.1 763.52 216.98 784.79 227.28 811.03 235.72 841.05 242.2 873.14 246.78 905.28 249.69 935.32 251.33 961.28 252.22 981.54 252.97 995.12 254.22 972.32 269.87 933.51 285.51 895.8 301.16 875.79 316.81 882.31 332.46 912.49 348.11 953.01 363.76 986.04 379.4 997.02 395.05 981.12 410.7 945.33 426.35 905.43 442 879 457.64 877.67 473.29 902.04 488.94 941.37 504.59 946.66 523.22 948.33 543.38 944.77 564.05 935.02 584.16 918.89 602.66 896.92 618.61 870.28 631.27 840.63 640.19 809.88 645.21 779.97 646.52 752.67 644.62 729.31 640.32 710.74 634.64 697.18 628.75 688.27 623.85 683.14 621.09 662.58 606.12 646.3 595.14 627.34 587.15 616.47 589.2 607.27 598.98 592.54 606.85 580.38 607.14 565.3 604.14 547.72 597.51 528.34 587.18 507.99 573.43 487.55 556.82 476.08 539.95 468.97 523.09 469.36 506.22 477.07 489.36 488.71 472.49 499.15 455.63 503.79 438.76 500.59 421.9 490.95 405.03 479.13 388.16 470.32 371.3 468.42 354.43 474.26 337.57 485.26 320.7 496.58 303.83 503.24 286.97 519.18 283.51 532.89 278.06 544.1 270.47 552.89 260.78 559.67 249.19 565.18 236.08 570.4 221.94 576.44 207.31 584.4 192.78 595.24 178.89 609.62 166.1 627.81 154.76 649.59 145.08 674.31 137.11 700.88 130.77 727.89 125.81 727.89 125.81 727.89 125.81" stroke-dasharray="0 1" transform="rotate(108, 711, 400)" opacity="0.40"></path><path d="M700.09 142.32Q701.26 153.48 704.03 165.71 709.61 178.67 718.96 192 732.69 205.26 750.98 218.01 773.55 229.82 799.64 240.32 828.09 249.24 857.42 256.42 886.01 261.81 912.21 265.52 934.56 267.78 951.93 268.94 963.65 269.47 969.63 269.88 939.8 284.74 902.71 299.59 872.68 314.45 861.28 329.3 872.91 344.15 903.09 359.01 940.17 373.86 969.86 388.72 980.7 403.57 968.51 418.42 938 433.28 900.93 448.13 871.6 462.99 861.32 477.84 874.06 492.7 904.91 507.55 910.38 526.12 914.82 545.14 916.54 563.75 914.19 581.1 906.9 596.44 894.31 609.13 876.61 618.73 854.5 625.03 829.07 628.06 801.72 628.08 773.94 625.62 747.2 621.37 722.81 616.2 701.75 611.05 684.62 606.87 671.58 604.58 660.81 590.63 653.52 580.07 640.94 572.83 628.8 579.23 619.12 583.76 606.57 587.35 591.32 589.18 573.84 588.61 554.77 585.15 534.89 578.57 514.99 568.86 495.79 556.24 485.83 540.31 481.71 524.39 485.03 508.46 494.5 492.53 506.48 476.61 516.33 460.68 520.27 444.75 516.77 428.82 507.18 412.9 495.2 396.97 485.46 381.04 481.7 365.12 485.38 349.19 495.08 333.26 507.06 317.34 516.69 301.41 533.72 296.38 549.05 289.4 562.21 280.51 572.95 269.86 581.3 257.74 587.56 244.54 592.29 230.72 596.3 216.78 600.52 203.17 605.95 190.35 613.54 178.67 624.06 168.38 638 159.64 655.53 152.47 676.42 146.76 700.09 142.32 700.09 142.32 700.09 142.32" stroke-dasharray="6 10" transform="rotate(112.50000000000001, 711, 400)" opacity="0.38"></path><path d="M677.73 158.83Q684.05 169.35 693.53 180.83 706.59 193.03 723.35 205.63 743.61 218.26 766.81 230.57 792.12 242.18 818.46 252.76 844.61 262.04 869.32 269.83 891.39 276.03 909.83 280.63 930.94 285.09 938.46 286.71 906.26 300.76 873.97 314.82 852.38 328.87 848.71 342.92 864.17 356.97 893.61 371.02 927.19 385.08 953.68 399.13 964.24 413.18 955.35 427.23 929.96 441.28 896.57 455.33 866.33 469.38 849.34 483.44 851.27 497.49 871.49 511.54 874.74 528.94 878.98 545.94 882.76 561.9 884.75 576.21 883.81 588.35 879.1 597.97 870.16 604.82 856.89 608.89 839.59 610.29 818.88 609.36 795.66 606.56 770.98 602.5 746.01 597.88 721.84 593.44 699.47 589.94 679.67 588.07 676.46 575.15 674.61 565.07 662.22 555.47 643.3 559.46 629.91 563.54 614.17 567.3 596.59 570.05 577.79 571.19 558.45 570.24 539.27 566.83 520.86 560.79 503.71 552.11 496.52 537.21 495.83 522.32 501.87 507.43 512.63 492.54 524.51 477.65 533.54 462.75 536.71 447.86 532.95 432.97 523.52 418.08 511.58 403.19 501.11 388.29 495.6 373.4 496.91 358.51 504.59 343.62 516.08 328.72 527.53 313.83 545.11 307.19 561.67 298.83 576.68 288.89 589.69 277.61 600.44 265.3 608.87 252.33 615.13 239.1 619.62 226.03 622.93 213.49 625.79 201.82 629.05 191.28 633.58 182.06 640.17 174.26 649.47 167.86 669.83 160.81 677.73 158.83" stroke-dasharray="6 8" transform="rotate(117, 711, 400)" opacity="0.35"></path><path d="M671.95 175.34Q685.24 185.18 701.45 195.9 720.37 207.29 741.54 219.1 764.31 231.03 787.87 242.78 811.31 254.06 833.7 264.57 854.13 274.06 871.82 282.33 886.15 289.24 896.75 294.74 905 301.01 903.96 303.93 873.6 317.14 848.21 330.35 835.06 343.56 837.9 356.77 855.92 369.98 883.97 383.2 914.03 396.41 937.5 409.62 947.68 422.83 941.65 436.04 921.14 449.25 892.01 462.46 862.59 475.67 841.3 488.89 834.2 502.1 843.35 515.31 842.83 530.65 844.56 545.04 847.52 558.02 850.61 569.21 844.12 588 824.04 590.44 808.41 587.51 790.02 583.74 769.51 579.69 747.68 575.93 725.35 573.05 703.38 571.56 700.47 551.37 693.29 538.48 685.98 536.22 676.16 536.01 663.89 537.48 649.39 540.16 633.04 543.53 615.36 547.04 596.92 550.15 578.32 552.33 560.12 553.13 542.83 552.18 526.83 549.21 512.39 544.06 508.82 530.29 511.59 516.53 519.9 502.76 531.38 488.99 542.75 475.22 550.75 461.45 553.1 447.69 549.13 433.92 539.97 420.15 528.24 406.38 517.3 392.61 510.27 378.84 509.16 365.07 514.29 351.31 524.2 337.54 536.04 323.77 553.4 315.71 570.45 306.28 586.69 295.68 601.61 284.15 614.82 272.01 626.02 259.58 635.05 247.19 641.93 235.17 646.86 223.81 650.21 213.35 654.54 196.46 659.78 183.3 668.33 177.08 671.95 175.34" stroke-dasharray="2 5" transform="rotate(121.5, 711, 400)" opacity="0.33"></path><path d="M685.64 191.85Q703.74 200.99 723.35 210.92 743.94 221.46 764.9 232.41 785.55 243.56 805.21 254.66 823.23 265.47 839.05 275.74 852.21 285.26 862.43 293.83 872.23 313.03 868.78 320.68 843.51 333 826.07 345.31 820.68 357.62 828.62 369.93 847.99 382.24 874.12 394.55 900.69 406.86 921.31 419.17 931 431.48 927.43 443.8 911.45 456.11 886.92 468.42 859.75 480.73 836.5 493.04 822.78 505.35 821.89 517.67 817.03 530.35 814.93 541.81 812.64 569.14 795.66 565.11 782.53 561.64 767.05 558.52 749.66 556.2 730.89 555.06 727.65 544.18 722.41 535.23 714.96 528.32 705.22 523.44 693.29 520.53 679.39 519.41 663.83 519.83 647.06 521.46 629.55 523.96 611.79 526.9 594.27 529.88 577.44 532.49 561.66 534.33 547.22 535.07 528.79 527 529.14 507 539.06 494.43 550.64 481.86 561.1 469.29 567.92 456.72 569.44 444.14 565.31 431.57 556.52 419 545.18 406.43 534.04 393.86 525.78 381.28 522.39 368.71 524.7 356.14 532.13 343.57 542.91 331 559.18 321.91 575.76 311.85 592.23 301.02 608.17 289.67 623.14 278.06 636.77 266.46 648.72 255.13 658.79 244.3 666.87 234.2 672.98 224.99 679.54 210.24 682.89 198.79 684.81 193.37 685.64 191.85" stroke-dasharray="5 4" transform="rotate(126, 711, 400)" opacity="0.30"></path><path d="M711.97 208.36Q730.38 216.78 748.67 225.88 766.35 235.53 782.97 245.6 798.09 255.89 811.33 266.23 822.41 276.43 831.17 286.3 837.53 295.64 841.57 304.31 840.28 325.98 835.54 336.16 817.35 347.5 807.9 358.84 809.07 370.18 820.63 381.52 840.26 392.86 864.04 404.2 887.21 415.54 905.14 426.88 914.23 438.22 912.68 449.56 900.79 460.9 880.94 472.23 857.1 483.57 834.04 494.91 816.37 506.25 807.63 517.59 798.76 527.36 792.53 535.84 783.81 547.55 770.7 541.21 760.59 539.39 748.47 538.55 740.04 528.69 729.62 520.39 717.36 513.71 703.5 508.69 688.33 505.29 672.24 503.4 655.6 502.88 638.83 503.5 622.31 505.03 606.41 507.19 591.44 509.68 577.64 512.2 565.17 514.44 554.11 516.12 542.36 511.22 548.46 494.13 559.17 482.81 570.25 471.48 579.48 460.15 585 448.83 585.72 437.5 581.5 426.18 573.17 414.85 562.4 403.53 551.35 392.2 542.23 380.87 536.86 369.55 536.32 358.22 540.71 346.89 549.16 335.57 563.53 325.96 578.65 315.77 594.22 305.19 609.93 294.42 625.43 283.68 640.36 273.16 654.39 263.06 667.2 253.54 678.53 244.75 688.19 236.79 701.35 224.15 709.51 214.33 711.58 209.66 711.97 208.36" stroke-dasharray="2 2" transform="rotate(130.5, 711, 400)" opacity="0.28"></path><path d="M737.82 224.87Q752.21 232.54 765.45 240.79 777.27 249.53 787.49 258.66 795.95 268.03 802.6 277.52 807.44 286.98 810.56 296.27 811.89 313.46 810.25 328.94 807.46 340.6 806.48 349.63 796.04 359.92 793.73 370.21 799.91 380.51 813.59 390.8 832.53 401.09 853.66 411.38 873.54 421.68 888.95 431.97 897.37 442.26 897.45 452.56 889.16 462.85 873.85 473.14 854.01 483.44 832.87 493.73 813.87 504.02 800.08 514.32 788.23 521.21 778.51 526.94 756.04 526.12 747.37 522.04 734.42 513.2 720.34 505.59 705.42 499.25 689.96 494.22 674.3 490.49 658.73 488.01 643.55 486.68 629.04 486.37 615.41 486.94 602.85 488.2 591.48 489.96 581.36 492 571.32 480.39 590.05 458.46 597.78 448.41 601.96 438.35 601.93 428.29 597.67 418.24 589.89 408.18 579.85 398.12 569.18 388.07 559.62 378.01 552.72 367.95 549.6 357.9 550.76 347.84 556.03 337.78 567.9 328.23 580.71 318.43 594.32 308.55 608.53 298.73 623.12 289.13 637.82 279.89 652.38 271.14 666.49 262.99 679.9 255.52 692.34 248.81 703.6 242.89 713.49 237.78 732.88 227.57 737.82 224.87" stroke-dasharray="7 7" transform="rotate(135, 711, 400)" opacity="0.25"></path><path d="M750.29 241.38Q765.58 255.66 775.52 271.6 780.42 288.55 781.32 305.7 779.91 322.22 778.26 337.3 778.65 350.24 783.17 360.53 783.29 378.89 807.19 397.25 842.96 415.61 872.77 433.97 881.74 452.33 865.41 470.69 831.91 489.05 797.96 507.41 772.61 515.12 753.34 519.14 732.4 511.97 728.14 505.53 699.34 490.82 671.13 480.01 645.17 473.21 622.71 470.15 604.45 470.18 590.47 472.39 585.88 468.48 609.83 443.7 618.77 426.12 613.85 408.53 597.54 390.95 577.95 373.37 564.87 355.79 564.8 338.21 583.86 320.33 606.43 302.94 631.78 286.86 658.68 272.76 685.58 261.09 710.81 252.05 732.79 245.59 750.29 241.38 750.29 241.38 750.29 241.38" stroke-dasharray="0 4" transform="rotate(139.5, 711, 400)" opacity="0.23"></path><path d="M743.17 257.89Q748.33 270.49 750.48 284.46 750.57 299.37 749.86 314.68 749.74 329.81 751.65 344.18 756.87 357.25 766.39 368.56 776.05 384.58 801.12 400.61 831.92 416.64 856.59 432.67 865.59 448.71 855.47 464.74 830.11 480.77 799.31 496.8 773.28 500.62 750.79 501.91 732.6 501.07 718.97 498.7 705.6 492.69 700.35 489.02 676.64 476.09 655.68 466.05 638.08 459.01 624.06 454.88 610.63 448.93 629.37 428.21 635.37 413.11 630.04 398 615.42 382.9 597.17 367.8 582.32 352.69 576.59 337.59 589.94 322.04 606.41 307.45 625.9 294.31 647.94 282.98 671.78 273.68 696.38 266.49 720.58 261.31 743.17 257.89 743.17 257.89 743.17 257.89" stroke-dasharray="10 7" transform="rotate(144, 711, 400)" opacity="0.20"></path><path d="M720 274.4Q720.6 285.27 720.74 297.24 721.26 310.02 723 323.28 726.76 336.65 733.22 349.75 742.87 362.21 755.99 373.66 771.26 387.3 795.04 400.94 820.51 414.58 840.41 428.22 849.04 441.86 843.93 455.5 826.54 469.13 801.86 482.77 777.97 483.88 755.51 483.47 735.21 481.89 717.66 479.56 703.18 476.96 691.85 474.59 683.54 472.96 677.88 472.51 663.11 461.39 651.18 452.31 630.23 439.34 621.54 438.5 637.34 425.79 648.47 413.09 651.74 400.38 646.22 387.67 633.48 374.96 617.17 362.25 601.95 349.54 592.17 336.83 600.45 324.18 611 312.63 624.01 302.42 639.51 293.73 657.32 286.63 677.06 281.12 698.19 277.1 720 274.4 720 274.4 720 274.4" stroke-dasharray="4 1" transform="rotate(148.5, 711, 400)" opacity="0.18"></path><path d="M692.35 290.9Q693.82 300.03 696.33 309.96 700.29 320.55 706.06 331.6 713.91 342.91 724 354.25 736.4 365.39 751.02 376.11 768.03 387.34 788.63 398.57 808.7 409.8 824.23 421.03 832.11 432.25 830.76 443.48 820.46 454.71 803.27 465.94 783.61 465.49 764 464.29 744.95 462.58 726.95 460.63 710.38 458.71 695.57 457.13 682.71 456.14 671.91 456 661.73 439.5 655.55 427.26 655.97 415.87 666.92 399.35 667.85 388.94 662.4 378.52 651.67 368.11 637.8 357.69 623.57 347.27 611.82 336.86 616.23 327.35 621.92 318.82 629.16 311.39 638.16 305.1 649.01 299.96 661.74 295.94 684.3 291.93 692.35 290.9" stroke-dasharray="3 5" transform="rotate(153, 711, 400)" opacity="0.15"></path><path d="M673.99 307.41Q685.05 322.65 701.39 339.77 723.18 358 749.89 376.43 781.61 394.11 808.04 411.79 816 429.47 801.51 447.16 772.2 444.83 741.75 442.04 712.23 439.9 685.43 439.49 683.19 425.43 681.64 414.88 678.99 407.95 673.71 404.36 684.51 387.9 678.58 371.45 658.89 355 635.26 338.55 639.66 326.36 646.78 317.18 665.96 309.2 673.99 307.41" stroke-dasharray="8 6" transform="rotate(157.5, 711, 400)" opacity="0.13"></path><path d="M674.08 323.92Q689.57 335.32 707.77 347.91 728.3 361.38 750.56 375.37 773.75 388.39 791.86 401.42 799.72 414.44 795.07 427.47 776.28 425.6 755.6 423.93 733.79 422.91 711.7 422.98 707.33 404.39 697.33 391.63 701.06 379.39 694.76 367.15 680.23 354.91 661.63 342.67 670.07 327.39 674.08 323.92" stroke-dasharray="0 2" transform="rotate(162, 711, 400)" opacity="0.10"></path><path d="M692.58 340.43Q720.92 356.15 750.93 373.86 775.69 390.91 783.13 407.95 762.49 406.4 737.62 406.48 729.91 392.73 717.38 382.32 710.95 366.04 689.57 349.75 691.92 342.05 692.58 340.43" stroke-dasharray="10 11" transform="rotate(166.5, 711, 400)" opacity="0.08"></path></g></svg>