<svg width="234" height="52" viewBox="0 0 234 52" fill="none" xmlns="http://www.w3.org/2000/svg">
<path d="M19.7855 32.8329H19.9157L24.1324 15.706H26.7798L21.5149 36.2983H18.2131L13.933 19.8558H13.8028L9.42596 36.2983H6.1575L0.892578 15.706H3.64022L7.95699 32.7661H8.08719L12.5642 15.706H15.2117L19.7855 32.8329Z" fill="black"/>
<path d="M43.8466 36.2983H29.1703V15.706H43.5528V18.0597H31.9179V24.5298H41.1691V26.8501H31.9179V33.9413H43.8499L43.8466 36.2983Z" fill="black"/>
<path d="M106.094 36.2983V18.0597H98.7494V15.706H116.521V18.0597H108.905V36.2983H106.094Z" fill="black"/>
<path d="M132.669 36.2983C132.275 35.7441 131.981 34.2384 131.818 31.8213C131.688 29.5344 130.609 27.9986 127.798 27.9986H121.982V36.3016H119.205V15.706H127.575C132.803 15.706 135.32 18.1231 135.32 21.7855C135.32 24.9538 133.163 26.6231 130.646 26.9169C133.163 27.4077 134.372 28.9434 134.569 31.3639C134.829 34.3686 134.929 35.5471 135.614 36.2983H132.669ZM127.408 25.7417C130.906 25.7417 132.472 24.4364 132.472 21.8857C132.472 19.532 130.903 18.0296 127.408 18.0296H121.982V25.7451L127.408 25.7417Z" fill="black"/>
<path d="M148.995 15.706L157.558 36.2983H154.554L152.066 30.2521H142.685L140.268 36.2983H137.49L145.89 15.706H148.995ZM143.57 27.9953H151.152L147.392 18.8443H147.262L143.57 27.9953Z" fill="black"/>
<path d="M159.641 15.706H167.093C173.563 15.706 177.65 19.562 177.65 26.0021C177.65 32.4422 173.563 36.2983 167.093 36.2983H159.641V15.706ZM166.933 33.978C171.967 33.978 174.712 31.0033 174.712 26.0021C174.712 21.001 171.964 18.0263 166.933 18.0263H162.486V33.9747L166.933 33.978Z" fill="black"/>
<path d="M195.181 36.2983H180.504V15.706H194.887V18.0597H183.245V24.5298H192.496V26.8501H183.245V33.9413H195.177L195.181 36.2983Z" fill="black"/>
<path d="M211.723 36.2983C211.329 35.7441 211.035 34.2384 210.872 31.8213C210.742 29.5344 209.663 27.9986 206.852 27.9986H201.036V36.3016H198.259V15.706H206.629C211.857 15.706 214.374 18.1231 214.374 21.7855C214.374 24.9538 212.217 26.6231 209.7 26.9169C212.217 27.4077 213.426 28.9434 213.623 31.3639C213.883 34.3686 213.983 35.5471 214.668 36.2983H211.723ZM206.462 25.7417C209.96 25.7417 211.526 24.4364 211.526 21.8857C211.526 19.532 209.957 18.0296 206.462 18.0296H201.036V25.7451L206.462 25.7417Z" fill="black"/>
<path d="M219.111 28.7798C219.275 32.5391 221.859 34.4654 225.321 34.4654C228.393 34.4654 230.322 33.16 230.322 30.9032C230.322 29.0069 229.08 28.0921 226.4 27.5679L222.313 26.7834C219.272 26.1958 217.182 24.5599 217.182 21.3582C217.182 17.7626 220.026 15.3121 224.537 15.3121C229.701 15.3121 232.676 18.0564 232.709 22.697L230.129 22.8272C230.029 19.4285 227.972 17.4988 224.57 17.4988C221.595 17.4988 219.929 18.9044 219.929 21.1913C219.929 23.2178 221.271 23.8721 223.655 24.3295L227.381 25.0473C231.14 25.7651 233.037 27.401 233.037 30.7029C233.037 34.4955 229.768 36.6822 225.321 36.6822C220.257 36.6822 216.561 33.9045 216.561 28.9367L219.111 28.7798Z" fill="black"/>
<path d="M53.5084 25.912C54.2696 23.0709 56.5966 21.9692 59.1372 22.2095C57.1241 21.2647 55.9456 19.0913 56.5632 16.7844C57.4079 13.6261 60.0053 12.0236 64.9297 13.3423L73.0457 15.5157L67.6773 35.5605L59.2174 33.2936C54.5734 32.0483 52.5903 29.3541 53.5084 25.912ZM69.794 17.0481L64.2352 15.5591C61.3607 14.7912 59.7816 15.7561 59.2741 17.6457C58.76 19.5721 59.618 21.2881 62.4925 22.056L68.0512 23.545L69.794 17.0481ZM61.738 24.1225C58.77 23.328 56.867 24.2394 56.2861 26.4161C55.7119 28.5628 56.9104 30.2722 59.8784 31.0668L65.6241 32.6058L67.4837 25.6616L61.738 24.1225Z" fill="black"/>
<path d="M79.0151 38.5986L70.5518 36.3317L75.9236 16.2869L84.0396 18.4603C88.964 19.7791 90.4096 22.4666 89.5649 25.6249C88.9473 27.9285 86.8407 29.2239 84.6239 29.0369C86.9442 30.0986 88.4065 32.2152 87.6453 35.0563C86.7238 38.4984 83.6523 39.8405 79.0151 38.5986ZM76.2307 25.7417L81.7894 27.2307C84.6639 27.9986 86.2664 26.9436 86.7806 25.0173C87.2881 23.121 86.4033 21.4984 83.5322 20.7272L77.9734 19.2382L76.2307 25.7417ZM75.6665 27.8551L73.8069 34.7993L79.5526 36.3384C82.5206 37.1329 84.4135 36.2549 84.9878 34.1082C85.572 31.9281 84.3802 30.1887 81.4122 29.3941L75.6665 27.8551Z" fill="black"/>
<path d="M96.9298 27.4878C97.03 25.8386 96.9632 24.1726 96.7362 22.5367C96.5125 20.9309 96.1286 19.3384 95.6011 17.7993C95.0769 16.2769 94.4025 14.7979 93.5946 13.4024C92.79 12.0069 91.8452 10.6815 90.7902 9.46622C89.7252 8.23763 88.5367 7.10919 87.258 6.1143C85.956 5.09937 84.5471 4.20797 83.0681 3.47349C81.5524 2.71563 79.9499 2.10801 78.2973 1.66398C76.6447 1.21995 74.952 0.946191 73.2627 0.846034C71.6135 0.745877 69.9475 0.812648 68.3116 1.03967C66.7058 1.26335 65.1133 1.64729 63.5775 2.17478C62.0551 2.69894 60.5762 3.37333 59.1806 4.18126C57.7851 4.98586 56.4597 5.93067 55.2445 6.98566C54.0159 8.05067 52.8874 9.23919 51.8925 10.5179C50.8776 11.8199 49.9862 13.2288 49.2517 14.7078C48.4939 16.2235 47.8863 17.826 47.4422 19.4786C46.9982 21.1312 46.7244 22.8238 46.6243 24.5131C46.5241 26.1624 46.5909 27.8283 46.8179 29.4642C47.0416 31.0701 47.4255 32.6626 47.953 34.2017C48.4772 35.7241 49.1516 37.203 49.9595 38.5986C50.7641 39.9941 51.7089 41.3195 52.7639 42.5347C53.8289 43.7633 55.0174 44.8918 56.2961 45.8867C57.5982 46.9016 59.007 47.793 60.486 48.5275C62.0017 49.2853 63.6042 49.8929 65.2568 50.337C66.9094 50.781 68.6021 51.0548 70.2914 51.1549C71.9406 51.2551 73.6066 51.1883 75.2392 50.9613C76.845 50.7376 78.4375 50.3537 79.9766 49.8262C81.499 49.302 82.978 48.6276 84.3735 47.8197C85.769 47.0151 87.0944 46.0703 88.3096 45.0153C89.5382 43.9503 90.6667 42.7618 91.6616 41.4831C92.6765 40.181 93.5679 38.7722 94.3024 37.2932C95.0602 35.7775 95.6679 34.175 96.1119 32.5224C96.5526 30.8731 96.8297 29.1771 96.9298 27.4878ZM93.6647 31.8647C92.8735 34.8193 91.5247 37.5302 89.6618 39.924C88.767 41.0724 87.7521 42.1441 86.647 43.1023C85.552 44.0504 84.3601 44.9018 83.1048 45.6263C81.8495 46.3507 80.5174 46.9583 79.1486 47.4291C77.7664 47.9065 76.3342 48.2504 74.8886 48.4507C71.8839 48.868 68.8625 48.681 65.9079 47.8865C62.9532 47.0952 60.2423 45.7464 57.8485 43.8835C56.7001 42.9888 55.6284 41.9739 54.6702 40.8688C53.7221 39.7737 52.8707 38.5819 52.1463 37.3266C51.4218 36.0713 50.8142 34.7392 50.3435 33.3704C49.866 31.9882 49.5222 30.556 49.3218 29.1104C48.9045 26.1056 49.0915 23.0842 49.8861 20.1296C50.6806 17.175 52.0261 14.4641 53.889 12.0703C54.7837 10.9218 55.7987 9.85015 56.9037 8.89198C57.9988 7.94383 59.1907 7.0925 60.446 6.36803C61.7013 5.64356 63.0334 5.03594 64.4022 4.5652C65.7843 4.08778 67.2166 3.74391 68.6622 3.5436C71.6669 3.12628 74.6883 3.31324 77.6429 4.10782C80.5976 4.89906 83.3085 6.24784 85.7022 8.11076C86.8507 9.0055 87.9224 10.0204 88.8805 11.1255C89.8287 12.2205 90.68 13.4124 91.4045 14.6677C92.129 15.923 92.7366 17.2551 93.2073 18.6239C93.6847 20.0061 94.0286 21.4383 94.2289 22.8839C94.6462 25.8886 94.456 28.9134 93.6647 31.8647Z" fill="black"/>
</svg>
